<svg width="175" height="175" viewBox="0 0 175 175" fill="none" xmlns="http://www.w3.org/2000/svg">
<g clip-path="url(#clip0)">
<path d="M11.6208 171.579C16.151 171.579 19.8235 167.906 19.8235 163.376C19.8235 158.846 16.151 155.173 11.6208 155.173C7.09048 155.173 3.41797 158.846 3.41797 163.376C3.41797 167.906 7.09048 171.579 11.6208 171.579Z" fill="#78D2FA"/>
<path d="M163.379 171.579C167.91 171.579 171.582 167.906 171.582 163.376C171.582 158.846 167.91 155.173 163.379 155.173C158.849 155.173 155.176 158.846 155.176 163.376C155.176 167.906 158.849 171.579 163.379 171.579Z" fill="#F5C86E"/>
<path d="M11.6208 19.827C16.151 19.827 19.8235 16.1544 19.8235 11.6242C19.8235 7.0939 16.151 3.42139 11.6208 3.42139C7.09048 3.42139 3.41797 7.0939 3.41797 11.6242C3.41797 16.1544 7.09048 19.827 11.6208 19.827Z" fill="#FF5A5A"/>
<path d="M163.379 19.827C167.91 19.827 171.582 16.1544 171.582 11.6242C171.582 7.0939 167.91 3.42139 163.379 3.42139C158.849 3.42139 155.176 7.0939 155.176 11.6242C155.176 16.1544 158.849 19.827 163.379 19.827Z" fill="#A5DC69"/>
<path d="M48.1811 34.0225L58.5936 40.2818L74.5466 33.6704L77.4847 21.8774H97.5085L100.447 33.6704L116.4 40.2818L126.812 34.0225L140.974 48.1845L134.715 58.597L141.326 74.55L153.119 77.4881V97.5119L141.326 100.45L134.715 116.403L140.974 126.815L126.812 140.977L116.4 134.718L100.447 141.33L97.5085 153.122H77.4847L74.5466 141.33L58.5936 134.718L48.1811 140.977L34.0194 126.815L40.2784 116.403L33.667 100.45L21.874 97.5119V77.4881L33.667 74.55L40.2784 58.597L34.0194 48.1845L48.1811 34.0225Z" fill="#6E87F5"/>
<path d="M87.4966 127.83C109.77 127.83 127.827 109.774 127.827 87.5C127.827 65.2262 109.77 47.1697 87.4966 47.1697C65.2228 47.1697 47.1663 65.2262 47.1663 87.5C47.1663 109.774 65.2228 127.83 87.4966 127.83Z" fill="white"/>
<path d="M143.903 125.055L138.532 116.12L143.824 103.351L153.945 100.829C155.468 100.45 156.537 99.0819 156.537 97.5123V90.9187H171.576C173.463 90.9187 174.993 89.3882 174.993 87.5008C174.993 85.613 173.463 84.0828 171.576 84.0828H156.537V77.4889C156.537 75.9193 155.468 74.5518 153.945 74.1721L143.824 71.6506L138.532 58.8811L143.903 49.9458C144.712 48.6009 144.5 46.8779 143.391 45.7681L129.229 31.6061C128.118 30.4962 126.395 30.285 125.051 31.0934L116.116 36.4644L103.346 31.1727L100.825 21.0514C100.445 19.5283 99.0773 18.4595 97.5078 18.4595H90.9146V3.42183C90.9146 1.53409 89.3843 0.00386047 87.4966 0.00386047C85.6088 0.00386047 84.0786 1.53409 84.0786 3.42183V18.4602H77.4847C75.9151 18.4602 74.5476 19.529 74.1679 21.0521L71.6464 31.1733L58.8769 36.465L49.9417 31.094C48.596 30.2854 46.8737 30.4966 45.7639 31.6067L31.6019 45.7687C30.492 46.8786 30.2808 48.6016 31.0892 49.9465L36.4602 58.8818L31.1685 71.6513L21.0472 74.1727C19.5241 74.5521 18.4553 75.92 18.4553 77.4895V84.0828H3.41797C1.53022 84.0828 0 85.613 0 87.5008C0 89.3882 1.53022 90.9187 3.41797 90.9187H18.4563V97.5127C18.4563 99.0822 19.5251 100.45 21.0482 100.829L31.1695 103.351L36.4612 116.12L31.0898 125.055C30.2812 126.401 30.4927 128.124 31.6025 129.233L45.7645 143.396C46.8744 144.505 48.5974 144.716 49.9427 143.908L58.8776 138.537L71.6471 143.829L74.1686 153.95C74.548 155.473 75.9158 156.541 77.4854 156.541H84.079V171.58C84.079 173.467 85.6092 174.998 87.4969 174.998C89.3847 174.998 90.9149 173.467 90.9149 171.58V156.541H97.5088C99.0784 156.541 100.446 155.473 100.826 153.95L103.347 143.829L116.117 138.537L125.052 143.908C126.397 144.716 128.119 144.505 129.23 143.396L143.392 129.233C144.5 128.123 144.712 126.4 143.903 125.055ZM131.786 118.165L136.669 126.288L126.284 136.673L118.161 131.79C117.231 131.231 116.092 131.147 115.091 131.562L99.1378 138.173C98.1367 138.588 97.3919 139.453 97.1298 140.505L94.8374 149.706H80.1551L77.8627 140.505C77.6005 139.453 76.8558 138.588 75.8546 138.173L59.9016 131.562C58.9001 131.147 57.7613 131.231 56.8319 131.79L48.7088 136.673L38.324 126.288L43.2069 118.165C43.7654 117.235 43.8498 116.097 43.4349 115.095L36.8238 99.1424C36.4089 98.1413 35.5438 97.3965 34.4924 97.1343L25.2913 94.8415V80.1593L34.4928 77.8669C35.5441 77.6047 36.4092 76.86 36.8242 75.8588L43.4352 59.9058C43.8501 58.9043 43.7654 57.7655 43.2072 56.8365L38.3243 48.7133L48.7091 38.3285L56.8323 43.2114C57.7613 43.7699 58.9001 43.8547 59.9016 43.4394L75.8546 36.8284C76.8558 36.4134 77.6005 35.5483 77.8627 34.497L80.1551 25.2955H94.8374L97.1298 34.497C97.3919 35.5483 98.1367 36.4134 99.1378 36.8284L115.091 43.4394C116.093 43.8543 117.231 43.7696 118.16 43.2114L126.283 38.3285L136.668 48.7133L131.785 56.8365C131.227 57.7655 131.142 58.9043 131.557 59.9058L138.168 75.8588C138.583 76.86 139.448 77.6047 140.5 77.8669L149.701 80.1593V94.8415L140.5 97.1343C139.448 97.3965 138.583 98.1413 138.168 99.1424L131.557 115.095C131.142 116.097 131.227 117.236 131.786 118.165Z" fill="black"/>
<path d="M102.569 46.4187C100.798 45.7693 98.8336 46.6778 98.1835 48.4497C97.5331 50.2219 98.4426 52.1855 100.215 52.836C114.686 58.1472 124.409 72.0778 124.409 87.5003C124.409 107.854 107.85 124.413 87.4966 124.413C67.1429 124.413 50.5839 107.854 50.5839 87.5C50.5839 72.9066 59.2067 59.6538 72.5508 53.7373C74.2766 52.9724 75.0552 50.953 74.2899 49.2273C73.525 47.5019 71.5053 46.7229 69.7802 47.4882C53.9666 54.4995 43.7483 70.2051 43.7483 87.4996C43.7483 111.622 63.3736 131.248 87.4966 131.248C111.62 131.248 131.245 111.623 131.245 87.5C131.245 69.2227 119.721 52.7133 102.569 46.4187Z" fill="black"/>
<path d="M87.4966 50.5873L87.6576 50.5877C87.661 50.5877 87.6644 50.5877 87.6678 50.5877C89.5508 50.5877 91.08 49.0639 91.0858 47.1796C91.0913 45.2919 89.5655 43.7572 87.6777 43.7517L87.4966 43.7514C85.6088 43.7514 84.0786 45.2816 84.0786 47.1693C84.0786 49.0571 85.6088 50.5873 87.4966 50.5873Z" fill="black"/>
<path d="M114.725 97.2429V77.3213C114.725 75.4335 113.195 73.9033 111.308 73.9033C109.42 73.9033 107.89 75.4335 107.89 77.3213V97.2429C107.89 99.1303 109.42 100.661 111.308 100.661C113.195 100.661 114.725 99.1303 114.725 97.2429Z" fill="black"/>
<path d="M84.2728 77.3213V84.136V88.7988V97.2429C84.2728 99.1303 85.803 100.661 87.6907 100.661C89.5785 100.661 91.1087 99.1303 91.1087 97.2429V92.2168H94.7328C99.5008 92.2168 103.38 88.3371 103.38 83.5693V82.5511C103.38 77.7831 99.5008 73.9037 94.7328 73.9037H87.6911C85.803 73.9037 84.2728 75.4335 84.2728 77.3213ZM91.1087 80.7393H94.7328C95.7318 80.7393 96.5446 81.552 96.5446 82.5511V83.5693C96.5446 84.5684 95.7318 85.3812 94.7328 85.3812H91.1087V84.1364V80.7393Z" fill="black"/>
<path d="M68.6984 73.9037C67.3316 73.9037 66.0963 74.7178 65.5573 75.9739L56.7848 96.4182C56.0403 98.1528 56.8432 100.163 58.5782 100.907C60.3131 101.651 62.3226 100.848 63.0666 99.1136L68.6981 85.9893L74.3299 99.1136C74.8856 100.409 76.1469 101.185 77.4724 101.185C77.9218 101.185 78.3791 101.095 78.8183 100.907C80.553 100.163 81.3558 98.1528 80.6114 96.4185L71.8389 75.9743C71.3005 74.7175 70.0653 73.9037 68.6984 73.9037Z" fill="black"/>
<path d="M142.45 35.9654C143.325 35.9654 144.2 35.6318 144.867 34.9643L157.941 21.8899C159.565 22.7536 161.416 23.2455 163.379 23.2455C169.787 23.2455 175 18.0327 175 11.6247C175 5.21671 169.787 0.00430298 163.379 0.00430298C156.971 0.00430298 151.759 5.21705 151.759 11.6251C151.759 13.5856 152.248 15.433 153.109 17.0542L140.032 30.1306C138.698 31.4653 138.698 33.6296 140.032 34.9643C140.7 35.6318 141.575 35.9654 142.45 35.9654ZM163.379 6.8399C166.018 6.8399 168.164 8.98638 168.164 11.6247C168.164 14.263 166.018 16.4095 163.379 16.4095C160.741 16.4095 158.594 14.263 158.594 11.6247C158.594 8.98638 160.741 6.8399 163.379 6.8399Z" fill="black"/>
<path d="M30.1267 140.036L17.055 153.109C15.4321 152.246 13.583 151.755 11.6211 151.755C5.21274 151.755 0 156.968 0 163.376C0 169.783 5.21274 174.997 11.6208 174.997C18.0288 174.997 23.2415 169.784 23.2415 163.376C23.2415 161.414 22.7507 159.564 21.8883 157.942L34.9604 144.87C36.2951 143.535 36.2951 141.371 34.9604 140.036C33.6253 138.702 31.461 138.702 30.1267 140.036ZM11.6208 168.161C8.98208 168.161 6.83594 166.015 6.83594 163.376C6.83594 160.738 8.98242 158.591 11.6208 158.591C14.2591 158.591 16.4056 160.738 16.4056 163.376C16.4056 166.015 14.2591 168.161 11.6208 168.161Z" fill="black"/>
<path d="M142.449 139.034C141.55 139.034 140.668 139.399 140.032 140.036C139.396 140.671 139.031 141.553 139.031 142.452C139.031 143.351 139.396 144.233 140.032 144.868C140.668 145.504 141.55 145.87 142.449 145.87C143.351 145.87 144.229 145.504 144.869 144.868C145.504 144.233 145.867 143.354 145.867 142.452C145.867 141.553 145.504 140.671 144.869 140.036C144.229 139.4 143.348 139.034 142.449 139.034Z" fill="black"/>
<path d="M163.379 151.755C161.415 151.755 159.564 152.247 157.941 153.111L152.167 147.337C150.832 146.003 148.668 146.002 147.333 147.337C145.999 148.671 145.998 150.836 147.333 152.17L153.11 157.947C152.249 159.569 151.759 161.416 151.759 163.376C151.759 169.784 156.972 174.997 163.38 174.997C169.788 174.997 175 169.784 175 163.376C175 156.968 169.787 151.755 163.379 151.755ZM163.379 168.161C160.741 168.161 158.594 166.015 158.594 163.376C158.594 160.738 160.741 158.591 163.379 158.591C166.018 158.591 168.164 160.738 168.164 163.376C168.164 166.015 166.018 168.161 163.379 168.161Z" fill="black"/>
<path d="M11.6208 23.2455C13.583 23.2455 15.4321 22.7546 17.0546 21.8923L30.1267 34.964C30.7942 35.6315 31.6688 35.9651 32.5435 35.9651C33.4182 35.9651 34.2932 35.6315 34.9604 34.964C36.2951 33.6292 36.2951 31.465 34.9604 30.1303L21.888 17.0589C22.7503 15.4361 23.2412 13.587 23.2412 11.6251C23.2412 5.21739 18.0284 0.00430298 11.6204 0.00430298C5.2124 0.00430298 0 5.21705 0 11.6251C0 18.0331 5.21274 23.2455 11.6208 23.2455ZM11.6208 6.8399C14.2594 6.8399 16.4056 8.98638 16.4056 11.6247C16.4056 14.263 14.2591 16.4095 11.6208 16.4095C8.98242 16.4095 6.83594 14.263 6.83594 11.6247C6.83594 8.98638 8.98208 6.8399 11.6208 6.8399Z" fill="black"/>
</g>
<defs>
<clipPath id="clip0">
<rect width="175" height="175" fill="white"/>
</clipPath>
</defs>
</svg>
