<svg width="219" height="75" viewBox="0 0 219 75" fill="none" xmlns="http://www.w3.org/2000/svg">
<path d="M53.548 61.234C54.0427 63.9193 54.8907 65.792 56.092 66.852C57.364 67.8413 59.484 68.5127 62.452 68.866L62.664 69.184L61.498 73.318C60.7207 73.318 59.2367 73.2473 57.046 73.106C54.926 73.0353 52.8413 73 50.792 73C47.5413 73 44.3967 73.1413 41.358 73.424C38.39 73.7067 36.482 73.9187 35.634 74.06L35.422 73.318L36.27 69.502C38.9553 69.29 40.9693 69.0073 42.312 68.654C43.7253 68.3007 44.6793 67.806 45.174 67.17C45.7393 66.4633 46.022 65.474 46.022 64.202C46.022 63.354 45.8807 62.0113 45.598 60.174L43.69 48.196C41.994 48.1253 38.4607 48.09 33.09 48.09C30.0513 48.09 26.2707 48.3727 21.748 48.938L16.554 60.386C15.5647 62.4353 15.07 64.0607 15.07 65.262C15.07 66.6047 15.494 67.594 16.342 68.23C17.2607 68.7953 18.7093 69.078 20.688 69.078H26.624V69.396L25.564 73.742C24.716 73.6713 22.8787 73.53 20.052 73.318C17.2253 73.106 14.3987 73 11.572 73C9.09867 73 6.802 73.0353 4.682 73.106C2.562 73.1767 1.14867 73.2473 0.442 73.318L1.82 68.548C3.86933 68.336 5.53 67.6647 6.802 66.534C8.14467 65.3327 9.52267 63.248 10.936 60.28L37.224 6.114L43.16 4.312H44.008C44.008 4.80666 45.068 11.8733 47.188 25.512C49.3787 39.1507 51.4987 51.058 53.548 61.234ZM33.196 44.274C36.5173 44.274 39.7327 44.062 42.842 43.638L38.178 15.336H37.436L24.186 44.274H33.196ZM107.996 23.816C109.41 23.816 110.682 24.0987 111.812 24.664C112.943 25.2293 113.826 26.0067 114.462 26.996C113.261 30.0347 112.06 32.7907 110.858 35.264H109.374C108.385 31.3773 106.936 29.434 105.028 29.434C103.262 29.434 101.424 30.7767 99.5164 33.462C97.6791 36.1473 95.3117 40.882 92.4144 47.666C94.1811 55.086 95.5237 60.1033 96.4424 62.718C97.4317 65.3327 98.3857 66.64 99.3044 66.64C99.8697 66.64 100.753 66.2513 101.954 65.474C103.156 64.6967 105.417 63.0007 108.738 60.386L110.01 60.492L111.388 63.036C107.078 67.4173 103.827 70.3853 101.636 71.94C99.5164 73.4947 97.5731 74.272 95.8064 74.272C94.8171 74.272 93.8984 73.7067 93.0504 72.576C92.2024 71.3747 91.2837 69.3607 90.2944 66.534C89.3051 63.7073 88.1037 59.644 86.6904 54.344C83.5811 61.4813 80.5424 66.6047 77.5744 69.714C74.6771 72.7527 71.4264 74.272 67.8224 74.272C66.1264 74.272 64.7131 73.9187 63.5824 73.212C62.4517 72.5053 61.8511 71.5867 61.7804 70.456C62.1337 69.184 62.6991 67.6293 63.4764 65.792C64.1831 63.9547 64.8544 62.5413 65.4904 61.552H66.9744C66.8331 63.9547 67.0451 65.8627 67.6104 67.276C68.2464 68.6187 69.1651 69.29 70.3664 69.29C73.9704 69.29 78.5637 62.5413 84.1464 49.044C82.5917 43.6027 81.4257 39.716 80.6484 37.384C79.8711 35.052 79.2351 33.4973 78.7404 32.72C78.2457 31.872 77.7157 31.448 77.1504 31.448C76.5851 31.448 75.7724 31.872 74.7124 32.72C73.6524 33.4973 71.7091 35.158 68.8824 37.702L67.5044 37.596L66.2324 35.052C69.8364 31.0947 72.8751 28.2327 75.3484 26.466C77.8217 24.6993 79.9771 23.816 81.8144 23.816C82.7331 23.816 83.5457 24.346 84.2524 25.406C85.0297 26.466 85.8424 28.3033 86.6904 30.918C87.6091 33.462 88.7397 37.2427 90.0824 42.26C93.0504 35.7587 95.9477 31.0593 98.7744 28.162C101.601 25.2647 104.675 23.816 107.996 23.816ZM126.961 66.64C127.456 66.64 128.198 66.2867 129.187 65.58C130.247 64.8027 132.297 63.0713 135.335 60.386L136.607 60.492L137.985 63.036C130.495 70.5267 125.548 74.272 123.145 74.272C122.015 74.272 121.202 73.954 120.707 73.318C120.213 72.7527 119.965 71.834 119.965 70.562C121.52 61.3753 122.792 53.3193 123.781 46.394C124.841 39.398 125.371 35.3347 125.371 34.204C125.371 32.5787 125.018 31.448 124.311 30.812C123.675 30.1053 122.545 29.752 120.919 29.752H116.573L117.315 25.724C122.121 25.724 127.845 25.512 134.487 25.088L135.441 26.36C133.675 32.084 131.943 38.7267 130.247 46.288C128.622 53.8493 127.421 60.492 126.643 66.216L126.961 66.64ZM130.883 11.732C129.47 11.732 128.375 11.2727 127.597 10.354C126.82 9.43533 126.431 8.30466 126.431 6.962C126.431 5.12466 127.103 3.53466 128.445 2.192C129.788 0.778664 131.413 0.0719975 133.321 0.0719975C134.805 0.0719975 135.936 0.531331 136.713 1.45C137.491 2.36866 137.879 3.49933 137.879 4.842C137.879 6.67933 137.173 8.30466 135.759 9.718C134.417 11.0607 132.791 11.732 130.883 11.732ZM156.289 74.272C152.755 74.272 149.893 72.682 147.703 69.502C145.512 66.322 144.417 62.1173 144.417 56.888C144.417 51.164 145.512 45.758 147.703 40.67C149.964 35.582 152.932 31.5187 156.607 28.48C160.352 25.3707 164.309 23.816 168.479 23.816C172.224 23.816 175.157 25.2293 177.277 28.056C179.467 30.812 180.563 34.6633 180.563 39.61C180.563 45.758 179.467 51.482 177.277 56.782C175.086 62.082 172.118 66.322 168.373 69.502C164.627 72.682 160.599 74.272 156.289 74.272ZM160.529 68.442C162.861 68.442 164.945 67.4527 166.783 65.474C168.62 63.4953 170.033 60.7747 171.023 57.312C172.083 53.7787 172.613 49.8213 172.613 45.44C172.613 40.7053 171.835 36.9953 170.281 34.31C168.797 31.554 166.712 30.176 164.027 30.176C161.765 30.176 159.716 31.13 157.879 33.038C156.041 34.8753 154.593 37.4193 153.533 40.67C152.543 43.9207 152.049 47.56 152.049 51.588C152.049 56.5347 152.826 60.598 154.381 63.778C156.006 66.8873 158.055 68.442 160.529 68.442ZM189.917 58.372C189.917 61.976 190.765 64.732 192.461 66.64C194.228 68.4773 196.772 69.396 200.093 69.396C202.142 69.396 203.874 68.7247 205.287 67.382C206.771 66.0393 207.513 64.4493 207.513 62.612C207.513 60.9867 206.948 59.432 205.817 57.948C204.686 56.464 203.026 54.8033 200.835 52.966C198.503 50.9167 196.701 49.3267 195.429 48.196C194.228 46.9947 193.168 45.5813 192.249 43.956C191.33 42.26 190.871 40.4933 190.871 38.656C190.871 36.0413 191.613 33.6033 193.097 31.342C194.652 29.0807 196.701 27.2787 199.245 25.936C201.789 24.5227 204.51 23.816 207.407 23.816C209.81 23.816 211.965 24.2047 213.873 24.982C215.852 25.6887 217.336 26.7133 218.325 28.056C217.83 29.54 216.629 32.296 214.721 36.324H213.237C212.46 33.992 211.258 32.19 209.633 30.918C208.008 29.5753 206.135 28.904 204.015 28.904C202.319 28.904 200.87 29.4693 199.669 30.6C198.538 31.66 197.973 33.0027 197.973 34.628C197.973 36.6067 199.033 38.7267 201.153 40.988C202.496 42.3307 203.909 43.638 205.393 44.91C208.361 47.454 210.622 49.7507 212.177 51.8C213.732 53.7787 214.509 56.0047 214.509 58.478C214.509 61.1633 213.661 63.7427 211.965 66.216C210.34 68.6187 208.184 70.562 205.499 72.046C202.814 73.53 199.987 74.272 197.019 74.272C193.768 74.272 191.012 73.742 188.751 72.682C186.56 71.622 185.182 70.1733 184.617 68.336C185.041 66.7107 185.642 64.9087 186.419 62.93C187.196 60.8807 187.868 59.3613 188.433 58.372H189.917Z" fill="#FF1E46"/>
</svg>
