<svg width="177" height="177" viewBox="0 0 177 177" fill="none" xmlns="http://www.w3.org/2000/svg">
<path d="M177 147.5C177 163.725 163.725 177 147.5 177H29.5C13.275 177 0 163.725 0 147.5V29.5C0 13.275 13.275 0 29.5 0H147.5C163.725 0 177 13.275 177 29.5V147.5Z" fill="#563D7C"/>
<path d="M48.0966 38.4657H98.2755C107.53 38.4657 114.963 40.577 120.545 44.8284C126.127 49.0799 128.932 55.4716 128.932 64.0613C128.932 69.2672 127.66 73.7211 125.115 77.4231C122.57 81.125 118.926 84.0172 114.182 86.0417V86.3309C120.545 87.6902 125.375 90.6981 128.643 95.3544C131.911 100.04 133.56 105.882 133.56 112.939C133.56 116.988 132.837 120.777 131.391 124.276C129.945 127.804 127.689 130.841 124.594 133.386C121.5 135.931 117.566 137.956 112.736 139.46C107.906 140.964 102.18 141.716 95.528 141.716H48.0966V38.4657ZM66.1726 81.7035H95.6726C100.011 81.7035 103.626 80.4888 106.518 78.0015C109.41 75.5142 110.856 71.9858 110.856 67.3583C110.856 62.1525 109.555 58.4794 106.952 56.3682C104.349 54.2569 100.589 53.1868 95.6726 53.1868H66.1726V81.7035ZM66.1726 126.966H98.1309C103.626 126.966 107.906 125.549 110.914 122.685C113.951 119.851 115.484 115.802 115.484 110.596C115.484 105.477 113.98 101.573 110.914 98.7961C107.849 96.0196 103.626 94.6892 98.1309 94.6892H66.1726V126.966Z" fill="white"/>
</svg>
