<svg width="342" height="173" viewBox="0 0 342 173" fill="none" xmlns="http://www.w3.org/2000/svg">
<path d="M114.033 120.389V53.9409H117.598V64.3939C118.019 63.9308 118.408 63.4389 118.762 62.9216C120.219 59.8621 122.508 57.2861 125.36 55.4956C128.213 53.705 131.51 52.7742 134.867 52.8121C142.992 52.5668 149.589 55.6094 153.47 62.9216C155.939 67.4641 157.298 72.5384 157.433 77.7206C157.568 82.9029 156.475 88.0426 154.246 92.7103C150.632 100.906 141.706 104.979 132.15 103.482C129.177 103.226 126.314 102.221 123.823 100.558C121.331 98.8946 119.292 96.627 117.889 93.9617V120.389H114.033ZM117.598 77.4479C117.913 80.6869 118.035 82.9934 118.398 85.2509C119.805 94.1335 124.995 99.4091 133.145 100.366C136.971 101.002 140.897 100.277 144.254 98.3123C147.611 96.3481 150.191 93.2669 151.554 89.594C153.12 85.8161 153.873 81.7444 153.765 77.6492C153.656 73.554 152.687 69.529 150.923 65.8416C149.468 62.5496 146.994 59.8259 143.875 58.0819C140.755 56.3378 137.159 55.668 133.63 56.1738C130.317 56.4167 127.16 57.698 124.6 59.8397C122.04 61.9813 120.203 64.8768 119.344 68.1236C118.585 71.195 118.002 74.3083 117.598 77.4479Z" fill="white"/>
<path d="M230.161 86.4778C229.62 91.1562 227.419 95.4768 223.966 98.6363C220.513 101.796 216.043 103.579 211.388 103.654C196.448 104.415 189.438 94.3789 188.323 82.7971C187.548 76.5076 188.558 70.125 191.233 64.3939C193.096 60.4627 196.148 57.2334 199.945 55.1733C203.743 53.1132 208.091 52.3292 212.358 52.9349C216.415 53.2827 220.262 54.9131 223.352 57.595C226.443 60.2769 228.621 63.8745 229.578 67.8782C230.338 71.5248 230.896 75.2111 231.252 78.9202H191.985C191.257 89.4223 196.836 97.8632 204.742 99.8998C214.59 102.354 223.006 98.035 226.062 88.5634C226.741 86.1342 227.978 85.7907 230.161 86.4778ZM191.985 75.5585H227.08C226.862 64.3694 219.974 56.272 210.636 56.1493C200.061 55.9775 192.446 63.7805 191.985 75.5585Z" fill="white"/>
<path d="M237.388 86.7235H240.832C240.96 89.2873 241.783 91.7661 243.212 93.8872C244.641 96.0084 246.621 97.6899 248.933 98.7469C251.837 100.069 254.998 100.711 258.181 100.626C261.364 100.541 264.487 99.7312 267.318 98.2561C268.86 97.5526 270.153 96.3872 271.02 94.9173C271.887 93.4474 272.288 91.7437 272.168 90.036C272.257 88.3891 271.813 86.7578 270.902 85.3895C269.992 84.0212 268.665 82.9906 267.124 82.4539C263.34 81.0307 259.314 80.2455 255.457 78.9941C251.445 77.8381 247.522 76.3865 243.719 74.651C237.51 71.5838 237.122 59.6339 244.155 55.8552C247.757 53.799 251.81 52.6881 255.945 52.6238C260.08 52.5595 264.165 53.5439 267.827 55.4871C270.046 56.7275 271.838 58.6227 272.964 60.9199C274.091 63.2171 274.499 65.8072 274.133 68.3448H271.174C271.174 68.1976 270.907 68.0749 270.907 67.9276C270.543 58.3825 262.637 55.438 254.148 56.2723C251.614 56.5885 249.152 57.3439 246.872 58.5052C245.501 59.1392 244.36 60.1878 243.604 61.5064C242.848 62.825 242.515 64.3484 242.651 65.8665C242.656 67.3852 243.124 68.8655 243.993 70.1043C244.861 71.3431 246.087 72.2799 247.502 72.7861C251.237 74.1602 255.142 75.0436 258.974 76.1232C262.055 76.982 265.256 77.5464 268.239 78.577C270.345 79.2753 272.191 80.604 273.534 82.3874C274.877 84.1708 275.652 86.3246 275.758 88.5638C276.118 91.0172 275.705 93.523 274.577 95.7254C273.45 97.9277 271.665 99.7147 269.476 100.833C261.375 105.47 248.036 104.243 242.094 98.3788C240.588 96.8465 239.396 95.0276 238.589 93.0272C237.781 91.0267 237.373 88.8843 237.388 86.7235Z" fill="white"/>
<path d="M319.415 68.3445H316.189C316.189 67.9028 316.02 67.5102 315.971 67.1421C315.919 64.6959 315.037 62.3421 313.474 60.4749C311.911 58.6077 309.762 57.3404 307.385 56.8854C302.901 55.5839 298.118 55.8168 293.779 57.5479C292.063 58.0455 290.553 59.0909 289.474 60.5282C288.394 61.9655 287.803 63.7175 287.788 65.5226C287.728 67.2955 288.274 69.0351 289.334 70.4477C290.395 71.8604 291.905 72.8595 293.609 73.2765C298.46 74.7979 303.432 75.7303 308.355 77.1044C309.951 77.4918 311.522 77.9753 313.061 78.5521C315.358 79.3837 317.354 80.8971 318.788 82.8946C320.222 84.892 321.027 87.2806 321.097 89.7482C321.168 92.2157 320.501 94.6475 319.184 96.7257C317.867 98.8038 315.961 100.432 313.716 101.397C310.293 102.969 306.583 103.801 302.824 103.839C299.065 103.877 295.34 103.12 291.887 101.617C289.047 100.378 286.651 98.289 285.021 95.6305C283.39 92.972 282.604 89.872 282.767 86.7477H284.126H285.92C286.504 89.5948 287.764 92.2551 289.593 94.4982C291.421 96.7414 293.763 98.4998 296.414 99.6212C299.066 100.743 301.948 101.193 304.81 100.934C307.673 100.675 310.43 99.7132 312.842 98.1331C314.312 97.3607 315.532 96.178 316.357 94.7254C317.183 93.2728 317.579 91.6112 317.499 89.9376C317.572 88.2897 317.112 86.6626 316.189 85.3031C315.265 83.9437 313.928 82.926 312.382 82.4045C308.598 80.9813 304.572 80.2207 300.715 78.9693C296.68 77.8311 292.732 76.3959 288.904 74.6752C282.84 71.657 282.355 59.8054 289.268 56.0266C292.914 53.8843 297.046 52.7335 301.262 52.6862C305.479 52.6389 309.635 53.6967 313.327 55.7567C315.439 57.032 317.139 58.9008 318.22 61.1357C319.3 63.3706 319.716 65.8751 319.415 68.3445Z" fill="white"/>
<path d="M108.139 102.452C106.869 102.938 105.467 102.937 104.198 102.449C102.929 101.961 101.88 101.019 101.251 99.8017C97.2976 93.8145 92.9319 88.0972 88.7359 82.2573L86.9169 79.8035C81.9206 86.5759 76.9243 93.0784 72.3645 99.8262C71.7705 100.99 70.7787 101.895 69.574 102.373C68.3692 102.852 67.0337 102.871 65.816 102.427L84.5643 76.9817L67.1257 53.9899C68.381 53.5314 69.7542 53.5251 71.0136 53.9721C72.2729 54.4192 73.3412 55.2922 74.0381 56.4437C78.0885 62.4309 82.5754 68.1482 87.0382 74.2089C91.5251 68.1972 95.9636 62.4554 100.111 56.5173C100.708 55.3729 101.701 54.4906 102.899 54.0382C104.098 53.5857 105.419 53.5948 106.611 54.0636L99.8442 63.1425C96.8125 67.1912 93.8293 71.2644 90.6763 75.215C90.4222 75.4451 90.219 75.7269 90.0798 76.0419C89.9407 76.3569 89.8688 76.698 89.8688 77.043C89.8688 77.3881 89.9407 77.7292 90.0798 78.0442C90.219 78.3592 90.4222 78.6409 90.6763 78.8711C96.473 86.6495 102.221 94.4525 108.139 102.452Z" fill="white"/>
<path d="M187.741 53.7446V57.1798C185.287 57.0171 182.828 57.3765 180.521 58.2349C178.213 59.0933 176.11 60.4316 174.345 62.1634C172.581 63.8953 171.195 65.9822 170.277 68.2894C169.359 70.5966 168.93 73.073 169.017 75.5585C169.017 83.6396 169.017 91.7206 169.017 99.8017C169.017 100.66 169.017 101.519 169.017 102.55H165.548V53.9409H168.944V63.9031C173.14 56.64 179.615 53.9409 187.741 53.7446Z" fill="white"/>
<path d="M20.8977 76.6627C21.407 74.209 21.7223 71.5344 22.4257 69.0315C26.6216 53.9409 43.7206 47.6593 55.4838 57.0081C62.3719 62.48 64.0939 70.2339 63.7544 78.9692H24.9481C24.3175 94.5752 35.45 103.998 49.6871 99.1882C51.9966 98.3525 54.0639 96.948 55.7026 95.1017C57.3413 93.2553 58.4998 91.0252 59.0734 88.6125C59.8252 86.1588 61.0379 85.7416 63.3421 86.4532C62.9625 89.4405 61.9185 92.3018 60.2886 94.822C58.6586 97.3423 56.4852 99.4559 53.9315 101.004C49.7123 103.338 44.8716 104.263 40.1016 103.646C35.3315 103.029 30.8765 100.902 27.3735 97.5688C23.908 93.6267 21.8125 88.6457 21.407 83.386C21.407 82.5517 21.0917 81.7175 20.9219 80.9323C20.9058 79.4764 20.8977 78.0532 20.8977 76.6627ZM24.9966 75.6076H60.092C59.8738 64.2958 52.8159 56.272 43.4053 56.1984C32.9276 56.0511 25.4332 63.9032 24.9723 75.5585L24.9966 75.6076Z" fill="white"/>
</svg>
