<svg width="392" height="386" viewBox="0 0 392 386" fill="none" xmlns="http://www.w3.org/2000/svg">
<g clip-path="url(#clip0)">
<path d="M196 386.001C304.248 386.001 392.001 299.592 392.001 193C392.001 86.4092 304.248 0 196 0C87.7524 0 0 86.4092 0 193C0 299.592 87.7524 386.001 196 386.001Z" fill="#FBD303"/>
<path d="M335.628 82.4938C335.628 77.3543 331.452 73.2418 326.232 73.2418H65.7681C60.5487 73.2418 56.3723 77.3536 56.3723 82.4938V114.104H335.627V82.4938H335.628Z" fill="#4F5565"/>
<path d="M84.037 100.484C87.7846 100.484 90.8227 97.4923 90.8227 93.802C90.8227 90.1117 87.7846 87.1201 84.037 87.1201C80.2893 87.1201 77.2513 90.1117 77.2513 93.802C77.2513 97.4923 80.2893 100.484 84.037 100.484Z" fill="#F0582F"/>
<path d="M106.743 100.484C110.491 100.484 113.529 97.4923 113.529 93.802C113.529 90.1117 110.491 87.1201 106.743 87.1201C102.996 87.1201 99.9576 90.1117 99.9576 93.802C99.9576 97.4923 102.996 100.484 106.743 100.484Z" fill="#FBD303"/>
<path d="M129.188 100.484C132.935 100.484 135.974 97.4923 135.974 93.802C135.974 90.1117 132.935 87.1201 129.188 87.1201C125.44 87.1201 122.402 90.1117 122.402 93.802C122.402 97.4923 125.44 100.484 129.188 100.484Z" fill="#71D456"/>
<path d="M287.345 87.1201H163.116C159.463 87.1201 156.331 90.2041 156.331 93.802C156.331 97.3999 159.463 100.484 163.116 100.484H287.607C291.26 100.484 294.392 97.3999 294.392 93.802C294.131 90.2041 290.999 87.1201 287.345 87.1201Z" fill="#333842"/>
<path d="M56.3731 114.361V303.506C56.3731 308.646 60.5488 312.758 65.7689 312.758H326.493C331.712 312.758 335.889 308.646 335.889 303.506V114.361H56.3731Z" fill="#FCFCFD"/>
<path d="M157.374 139.803H85.3424V286.802H157.374V139.803Z" fill="#6EB1E1"/>
<path d="M258.637 139.803H183.473V153.681H258.637V139.803Z" fill="#DEDEDF"/>
<path d="M306.397 173.212H183.473V187.089H306.397V173.212Z" fill="#DEDEDF"/>
<path d="M306.397 206.363H183.473V220.241H306.397V206.363Z" fill="#DEDEDF"/>
<path d="M306.397 239.773H183.473V253.65H306.397V239.773Z" fill="#DEDEDF"/>
<path d="M288.65 272.924H183.473V286.802H288.65V272.924Z" fill="#DEDEDF"/>
<g clip-path="url(#clip1)">
<path d="M24.381 228.001C23.0348 228.001 21.9434 229.205 21.9434 230.689V241.439C21.9434 242.923 23.0348 244.126 24.381 244.126C25.7272 244.126 26.8186 242.923 26.8186 241.439V230.689C26.8186 229.204 25.7272 228.001 24.381 228.001Z" fill="#37474F"/>
<path d="M34.1299 238.75H24.3798C23.0337 238.75 21.9423 237.547 21.9423 236.063C21.9423 234.578 23.0337 233.375 24.3798 233.375H34.1299C35.4761 233.375 36.5675 234.578 36.5675 236.063C36.5675 237.547 35.4763 238.75 34.1299 238.75Z" fill="#37474F"/>
<path d="M34.1299 244.125C32.7837 244.125 31.6923 242.922 31.6923 241.438V230.688C31.6923 229.203 32.7837 228 34.1299 228C35.4761 228 36.5675 229.203 36.5675 230.688V241.438C36.5675 242.922 35.4763 244.125 34.1299 244.125Z" fill="#37474F"/>
<path d="M53.63 233.375H43.88C42.5338 233.375 41.4424 232.172 41.4424 230.688C41.4424 229.203 42.5338 228 43.88 228H53.63C54.9762 228 56.0676 229.203 56.0676 230.688C56.0676 232.172 54.9762 233.375 53.63 233.375Z" fill="#37474F"/>
<path d="M48.7548 244.125C47.4086 244.125 46.3173 242.922 46.3173 241.438V230.688C46.3173 229.203 47.4086 228 48.7548 228C50.101 228 51.1924 229.203 51.1924 230.688V241.438C51.1924 242.922 50.1012 244.125 48.7548 244.125Z" fill="#37474F"/>
<path d="M78.0048 244.125C76.6586 244.125 75.5672 242.922 75.5672 241.438V238.75L72.6422 243.05C71.756 244.238 70.1647 244.408 69.0877 243.431C68.9615 243.317 68.8459 243.189 68.7422 243.05L65.8172 238.75V241.438C65.8172 242.922 64.7258 244.125 63.3796 244.125C62.0334 244.125 60.942 242.922 60.942 241.438V230.688C60.942 229.203 62.0334 228 63.3796 228C64.1467 228 64.8693 228.398 65.3295 229.075L70.6921 236.955L76.0546 229.075C76.8624 227.888 78.3903 227.647 79.4671 228.538C80.0808 229.045 80.4421 229.842 80.4421 230.688V241.438C80.4424 242.922 79.3512 244.125 78.0048 244.125Z" fill="#37474F"/>
<path d="M95.0673 244.125H87.7548C86.4086 244.125 85.3173 242.922 85.3173 241.438V230.688C85.3173 229.203 86.4086 228 87.7548 228C89.101 228 90.1924 229.203 90.1924 230.688V238.75H95.0673C96.4135 238.75 97.5049 239.953 97.5049 241.438C97.5049 242.922 96.4135 244.125 95.0673 244.125Z" fill="#37474F"/>
<path d="M99.3086 255.757C98.847 255.196 98.1919 254.876 97.5049 254.875H19.5049C18.1587 254.868 17.0626 256.066 17.0566 257.551C17.0562 257.639 17.0598 257.727 17.0674 257.815L24.3798 343.815C24.4742 344.918 25.173 345.844 26.1396 346.148L60.2645 356.898C60.4848 356.967 60.7131 357.001 60.9421 357C61.2035 357 61.4635 356.954 61.7124 356.865L90.9623 346.115C91.8798 345.779 92.5299 344.876 92.6197 343.815L99.9322 257.815C99.9964 257.063 99.77 256.315 99.3086 255.757Z" fill="#FF5722"/>
<path d="M60.4276 334.916L60.4248 334.915L43.3625 329.54L43.3619 329.54C42.7117 329.336 42.1805 328.753 42.0034 327.977C42.0033 327.977 42.0033 327.977 42.0032 327.977L39.5658 317.227L39.5659 317.227L39.5634 317.217C39.2627 316.008 39.9202 314.819 40.929 314.514C41.9136 314.216 42.9969 314.841 43.2944 316.037L43.2947 316.038C43.3026 316.069 43.3098 316.102 43.3168 316.136L43.3167 316.136L43.3192 316.147L45.4154 325.392L45.4789 325.672L45.7528 325.759L60.7386 330.478L60.9013 330.529L61.0613 330.47L73.4732 325.907L73.7701 325.798L73.7986 325.483L75.807 303.295L75.8563 302.75H75.309L39.0051 302.75L39.0007 302.75C38.0594 302.758 37.1953 301.98 37.0642 300.844C37.0642 300.844 37.0642 300.844 37.0642 300.843L34.6267 279.345L34.6266 279.344C34.4831 278.097 35.2847 277.035 36.3098 276.891C36.3944 276.879 36.479 276.874 36.5626 276.875L36.5626 276.875H36.5673H82.8797C83.905 276.875 84.8173 277.807 84.8173 279.062C84.8173 280.317 83.905 281.25 82.8797 281.25H39.3268H38.7669L38.83 281.806L40.6581 297.931L40.7084 298.375H41.1549L78.0051 298.375L78.0079 298.375C79.0327 298.369 79.9489 299.296 79.9547 300.551V300.551C79.9551 300.629 79.9517 300.708 79.9446 300.786L77.5071 327.661L77.5071 327.661C77.4278 328.545 76.8896 329.259 76.1794 329.521L61.5595 334.894C61.5588 334.895 61.5581 334.895 61.5574 334.895C61.3583 334.966 61.1519 335.001 60.9453 335C60.7709 334.999 60.5967 334.971 60.4276 334.916Z" fill="#FAFAFA" stroke="black"/>
</g>
<g clip-path="url(#clip2)">
<path d="M360.276 258.569L353.711 345.285C343.983 353.883 331.767 359 318.5 359C305.233 359 293.017 353.883 283.289 345.285L276.724 258.569H360.276Z" fill="#006BC0"/>
<path d="M318.499 266.721V357.285L345.963 348.453L352.089 266.721H318.499Z" fill="#0096DC"/>
<path d="M342.766 302.145H322.959L343.656 290.146L344.55 278.083H292.448L293.36 290.381H314.275L294.207 301.811L295.141 314.41H330.938L329.765 329.414L318.499 332.89L306.765 329.147L306.471 319.79H295.54L296.907 338.236L318.499 345.187L340.091 338.236L342.767 302.143L342.766 302.145Z" fill="white"/>
<path d="M298.14 245.2V236.645H308.935V232.011H294.228V249.834H308.935V245.2H298.14Z" fill="#222123"/>
<path d="M315.253 238.984V236.845H325.99V236.645V232.011H311.282V243.061H321.824V245.2H311.282V249.834H325.99V245.2V238.984H315.253Z" fill="#222123"/>
<path d="M332.033 238.984V236.845H342.77V236.645V232.011H328.063V243.061H338.605V245.2H328.063V249.834H342.77V245.2V238.984H332.033Z" fill="#222123"/>
</g>
</g>
<defs>
<clipPath id="clip0">
<rect width="392" height="386" fill="white"/>
</clipPath>
<clipPath id="clip1">
<rect width="117" height="129" fill="white" transform="translate(0 228)"/>
</clipPath>
<clipPath id="clip2">
<rect width="115" height="131" fill="white" transform="translate(261 228)"/>
</clipPath>
</defs>
</svg>
