<svg width="175" height="215" viewBox="0 0 175 215" fill="none" xmlns="http://www.w3.org/2000/svg">
<path d="M15.909 0.00111389H159.087C167.873 0.00111389 174.996 7.12394 174.996 15.9101V143.182C174.996 151.968 167.873 159.091 159.087 159.091H15.909C7.12282 159.091 0 151.968 0 143.182V15.9101C0 7.12394 7.12282 0.00111389 15.909 0.00111389Z" fill="#F0EAF9"/>
<path d="M7.95431 31.8202H167.042C171.435 31.8202 174.996 35.3814 174.996 39.7745V39.7749C174.996 44.168 171.435 47.7292 167.042 47.7292H7.95431C3.56122 47.7292 0 44.168 0 39.7749V39.7745C0 35.3814 3.56122 31.8202 7.95431 31.8202Z" fill="#E1D5F3"/>
<path d="M15.909 0.00111389H159.089C167.875 0.00111389 174.998 7.12393 174.998 15.9101V39.7734H0V15.9101C0 7.12393 7.12282 0.00111389 15.909 0.00111389Z" fill="#5628B4"/>
<path d="M15.909 0.00111389H159.09C163.483 0.00111389 167.045 3.56234 167.045 7.95542V7.95579C167.045 12.3489 163.483 15.9101 159.09 15.9101H15.909C11.5159 15.9101 7.95468 12.3489 7.95468 7.95579V7.95542C7.95468 3.56234 11.5159 0.00111389 15.909 0.00111389Z" fill="#6F48BF"/>
<path d="M11.932 31.8202H163.067C165.264 31.8202 167.045 33.601 167.045 35.7976C167.045 37.9941 165.264 39.7749 163.067 39.7749H11.932C9.73548 39.7749 7.95468 37.9941 7.95468 35.7976C7.95468 33.601 9.73548 31.8202 11.932 31.8202Z" fill="#421198"/>
<path d="M171.02 55.6824C168.824 55.6824 167.043 57.4628 167.043 59.6594C167.043 59.6594 167.043 59.6594 167.043 59.6597V143.181C167.043 147.574 163.482 151.136 159.089 151.136H115.34C113.143 151.136 111.362 152.916 111.362 155.113C111.362 157.309 113.143 159.09 115.34 159.09H159.089C167.875 159.09 174.997 151.967 174.998 143.181V59.6597C174.998 57.4628 173.217 55.6824 171.02 55.6824Z" fill="#D9C9EF"/>
<path d="M3.97734 71.5899C6.17388 71.5899 7.95468 73.3707 7.95468 75.5672V139.202C7.95468 141.399 6.17388 143.18 3.97734 143.18C1.7808 143.18 0 141.399 0 139.202V75.5672C0 73.3707 1.7808 71.5899 3.97734 71.5899Z" fill="#DFD2F2"/>
<path d="M19.8875 23.8659C22.0841 23.8659 23.8648 22.0852 23.8648 19.8886C23.8648 17.6919 22.0841 15.9112 19.8875 15.9112C17.6908 15.9112 15.9101 17.6919 15.9101 19.8886C15.9101 22.0852 17.6908 23.8659 19.8875 23.8659Z" fill="#F7B236"/>
<path d="M35.7938 23.8659C37.9904 23.8659 39.7712 22.0852 39.7712 19.8886C39.7712 17.6919 37.9904 15.9112 35.7938 15.9112C33.5972 15.9112 31.8165 17.6919 31.8165 19.8886C31.8165 22.0852 33.5972 23.8659 35.7938 23.8659Z" fill="#B39DDD"/>
<path d="M51.7039 23.8659C53.9006 23.8659 55.6813 22.0852 55.6813 19.8886C55.6813 17.6919 53.9006 15.9112 51.7039 15.9112C49.5073 15.9112 47.7266 17.6919 47.7266 19.8886C47.7266 22.0852 49.5073 23.8659 51.7039 23.8659Z" fill="#D80E70"/>
<path d="M151.135 111.363H71.5899C67.1968 111.363 63.6356 107.802 63.6356 103.409V63.6378C63.6356 59.2447 67.1968 55.6835 71.5899 55.6835H151.135C155.528 55.6835 159.089 59.2447 159.089 63.6378V103.409C159.089 107.802 155.528 111.363 151.135 111.363Z" fill="#B39DDD"/>
<path d="M39.7712 87.5H23.8633C19.4702 87.5 15.909 83.9388 15.909 79.5457V63.6378C15.909 59.2447 19.4702 55.6835 23.8633 55.6835H39.7712C44.1643 55.6835 47.7255 59.2447 47.7255 63.6378V79.5457C47.7255 83.9388 44.1643 87.5 39.7712 87.5Z" fill="#B39DDD"/>
<path d="M39.7712 143.18H23.8633C19.4702 143.18 15.909 139.619 15.909 135.225V119.318C15.909 114.925 19.4702 111.363 23.8633 111.363H39.7712C44.1643 111.363 47.7255 114.925 47.7255 119.318V135.225C47.7255 139.619 44.1643 143.18 39.7712 143.18Z" fill="#B39DDD"/>
<path d="M67.613 119.316H91.4748C93.6713 119.316 95.4521 121.097 95.4521 123.294C95.4521 125.49 93.6713 127.271 91.4748 127.271H67.613C65.4164 127.271 63.6356 125.49 63.6356 123.294C63.6356 121.097 65.4164 119.316 67.613 119.316Z" fill="#B39DDD"/>
<path d="M147.156 119.316H155.11C157.307 119.316 159.088 121.097 159.088 123.294C159.088 125.49 157.307 127.271 155.11 127.271H147.156C144.96 127.271 143.179 125.49 143.179 123.294C143.179 121.097 144.96 119.316 147.156 119.316Z" fill="#B39DDD"/>
<path d="M107.386 119.316H131.248C133.445 119.316 135.225 121.097 135.225 123.294C135.225 125.49 133.445 127.271 131.248 127.271H107.386C105.19 127.271 103.409 125.49 103.409 123.294C103.409 121.097 105.19 119.316 107.386 119.316Z" fill="#B39DDD"/>
<path d="M67.613 135.227H99.4317C101.628 135.227 103.409 137.007 103.409 139.204C103.409 141.4 101.628 143.181 99.4317 143.181H67.613C65.4164 143.181 63.6356 141.4 63.6356 139.204C63.6356 137.007 65.4164 135.227 67.613 135.227Z" fill="#B39DDD"/>
<path d="M115.34 135.227H123.294C125.49 135.227 127.271 137.007 127.271 139.204C127.271 141.4 125.49 143.181 123.294 143.181H115.34C113.143 143.181 111.362 141.4 111.362 139.204C111.362 137.007 113.143 135.227 115.34 135.227Z" fill="#B39DDD"/>
<path d="M43.7481 103.41H19.8863C17.6898 103.41 15.909 101.629 15.909 99.4328C15.909 97.2362 17.6898 95.4554 19.8863 95.4554H43.7481C45.9447 95.4554 47.7255 97.2362 47.7255 99.4328C47.7255 101.629 45.9447 103.41 43.7481 103.41Z" fill="#B39DDD"/>
<path d="M87.4989 119.318H79.5453C57.5799 119.318 39.773 137.124 39.773 159.09C39.773 159.09 39.773 159.09 39.773 159.091V159.301C39.8014 163.646 35.9665 167.045 31.6215 167.045H27.8407C25.6441 167.045 23.8633 168.825 23.8633 171.022C23.8633 173.218 25.6441 174.999 27.8407 174.999H55.6813C77.6467 174.999 95.4532 157.192 95.4532 135.227V119.318H87.4989Z" fill="#F7B236"/>
<path d="M95.4532 135.227V119.318H87.4989C87.4989 141.283 69.6924 159.09 47.7266 159.09H39.7734V159.301C39.8018 163.646 35.9665 167.044 31.6219 167.044H27.8407C25.6441 167.044 23.8633 168.825 23.8633 171.022C23.8633 173.218 25.6441 174.999 27.8407 174.999H55.6813C77.6467 174.999 95.4532 157.192 95.4532 135.227Z" fill="#F58B04"/>
<path d="M172.332 42.4394C169.894 40.002 166.289 39.1507 163.019 40.241C134.983 50.1469 111.886 70.5444 98.5886 97.1389L95.4532 103.409V119.318H111.362L117.632 116.183C144.227 102.885 164.624 79.7877 174.53 51.7528C175.62 48.482 174.769 44.8768 172.332 42.4394Z" fill="#D80E70"/>
<path d="M142.234 64.5867C139.128 61.4804 129.91 65.6619 121.646 73.9263C113.381 82.1908 109.2 91.4086 112.306 94.5149C115.413 97.6212 124.63 93.4397 132.895 85.1753C141.159 76.9108 145.341 67.693 142.234 64.5867Z" fill="#E976AF"/>
<path d="M163.018 40.2406C161.641 40.7272 160.335 41.354 158.982 41.8902C157.946 77.555 130.895 107.056 95.4532 111.173V119.318H111.362L117.632 116.183C144.227 102.885 164.624 79.7873 174.531 51.7524C176.12 46.9838 173.542 41.8297 168.774 40.2406C166.906 39.6179 164.886 39.6179 163.018 40.2406Z" fill="#A60068"/>
<path d="M87.4989 119.318L95.4532 127.272L111.362 119.318L95.4532 103.409L87.4989 119.318Z" fill="#5628B4"/>
<path d="M91.7988 123.617L95.4532 127.272L111.362 119.318L103.73 111.686C100.435 108.391 95.0938 108.391 91.7988 111.686C91.1574 112.327 90.6239 113.067 90.2182 113.879C88.5944 117.127 89.2308 121.05 91.7988 123.617Z" fill="#420F9B"/>
<path d="M71.0887 128.137C68.6691 125.717 61.698 128.766 55.5182 134.945C49.3385 141.125 46.2903 148.096 48.7099 150.516C51.1295 152.935 58.1007 149.887 64.2804 143.708C70.4602 137.528 73.5083 130.557 71.0887 128.137Z" fill="#FBDA9E"/>
<path d="M68.01 199.235C68.01 202.595 67.0417 205.115 65.105 206.795C63.1917 208.452 60.4033 209.28 56.74 209.28C53.1 209.28 50.3 208.452 48.34 206.795C46.38 205.115 45.4 202.595 45.4 199.235V186.39C45.4 185.807 46.0533 185.282 47.36 184.815C48.69 184.348 50.23 184.115 51.98 184.115C53.38 184.115 54.29 184.383 54.71 184.92C55.0133 185.34 55.165 185.702 55.165 186.005V196.435C55.165 199.072 55.2583 200.822 55.445 201.685C55.655 202.525 56.0867 202.945 56.74 202.945C57.3933 202.945 57.8017 202.537 57.965 201.72C58.1517 200.88 58.245 199.107 58.245 196.4V186.39C58.245 185.807 58.8983 185.282 60.205 184.815C61.535 184.348 63.0633 184.115 64.79 184.115C66.26 184.115 67.1933 184.383 67.59 184.92C67.87 185.34 68.01 185.702 68.01 186.005V199.235ZM80.5605 208.16C80.5605 208.417 79.8488 208.627 78.4255 208.79C77.0022 208.93 75.5672 209 74.1205 209C72.6972 209 71.7872 208.942 71.3905 208.825C70.9938 208.685 70.7955 208.463 70.7955 208.16V186.39C70.7955 185.877 71.4722 185.375 72.8255 184.885C74.1788 184.372 75.6955 184.115 77.3755 184.115C78.8688 184.115 79.8488 184.43 80.3155 185.06C80.4788 185.293 80.5605 185.527 80.5605 185.76V208.16ZM84.2836 209C83.7703 209 83.397 208.848 83.1636 208.545C82.9536 208.218 82.8486 207.88 82.8486 207.53C82.8486 207.18 84.7386 200.005 88.5186 186.005C88.8686 184.745 90.6653 184.115 93.9086 184.115C95.122 184.115 95.7286 184.523 95.7286 185.34C95.7286 185.48 93.7686 192.853 89.8486 207.46C89.5686 208.487 87.7136 209 84.2836 209ZM120.613 199.235C120.613 202.595 119.644 205.115 117.708 206.795C115.794 208.452 113.006 209.28 109.343 209.28C105.703 209.28 102.903 208.452 100.943 206.795C98.9825 205.115 98.0025 202.595 98.0025 199.235V186.39C98.0025 185.807 98.6559 185.282 99.9625 184.815C101.293 184.348 102.833 184.115 104.583 184.115C105.983 184.115 106.893 184.383 107.313 184.92C107.616 185.34 107.768 185.702 107.768 186.005V196.435C107.768 199.072 107.861 200.822 108.048 201.685C108.258 202.525 108.689 202.945 109.343 202.945C109.996 202.945 110.404 202.537 110.568 201.72C110.754 200.88 110.848 199.107 110.848 196.4V186.39C110.848 185.807 111.501 185.282 112.808 184.815C114.138 184.348 115.666 184.115 117.393 184.115C118.863 184.115 119.796 184.383 120.193 184.92C120.473 185.34 120.613 185.702 120.613 186.005V199.235ZM129.313 209C127.61 209 126.023 208.86 124.553 208.58C123.083 208.277 122.348 207.845 122.348 207.285C122.348 206.958 122.826 205.897 123.783 204.1C124.763 202.28 126.233 199.713 128.193 196.4C124.693 189.82 122.943 186.367 122.943 186.04C122.943 185.527 123.678 185.083 125.148 184.71C126.641 184.337 127.995 184.15 129.208 184.15C130.445 184.15 131.448 184.337 132.218 184.71C133.011 185.083 133.443 185.457 133.513 185.83L134.878 192.025H135.053L136.033 185.9C136.056 185.737 136.336 185.515 136.873 185.235C137.41 184.955 138.121 184.71 139.008 184.5C139.918 184.267 140.956 184.15 142.123 184.15C143.313 184.15 144.305 184.29 145.098 184.57C145.891 184.85 146.288 185.375 146.288 186.145C146.288 186.542 145.868 187.697 145.028 189.61C144.188 191.523 142.916 194.183 141.213 197.59C144.993 203.727 146.883 206.958 146.883 207.285C146.883 208.428 145.495 209 142.718 209C138.588 209 136.371 208.44 136.068 207.32L134.703 202.455H134.493L133.373 207.32C133.116 208.44 131.763 209 129.313 209Z" fill="#D80E70"/>
</svg>
