<svg width="226" height="155" viewBox="0 0 226 155" fill="none" xmlns="http://www.w3.org/2000/svg">
<path d="M188.155 40.7195C182.505 24.8179 159.338 24.8179 154.818 37.9777C150.299 51.1374 165.554 58.8135 189.286 66.4911C213.017 74.168 227.708 94.4566 224.883 112.551C222.057 130.645 214.147 154.224 167.25 154.224C137.939 154.224 121.65 136.445 113.555 123.112L140.128 107.616C140.128 107.616 149.169 126.259 166.119 126.259C183.07 126.259 189.85 120.776 189.85 108.164C189.85 92.8114 135.042 87.3285 126.567 61.0082C118.091 34.6879 129.392 -2.59817 168.944 0.142899C193.664 1.85664 207.569 13.6366 214.522 22.2308L188.155 40.7195Z" fill="#E4BA42"/>
<path d="M64.9782 2.8855C64.9782 2.8855 64.9782 95.5532 64.9782 108.165C64.9782 120.776 53.6777 127.357 42.3771 125.163C31.0765 122.97 25.9911 109.81 25.9911 109.81L0 126.809C0 126.809 5.64991 152.031 41.2471 154.225C76.8442 156.419 97.1847 135.582 97.1847 118.035C97.1847 100.488 97.1847 2.8855 97.1847 2.8855H64.9782Z" fill="#E4BA42"/>
</svg>
