<svg width="177" height="233" viewBox="0 0 177 233" fill="none" xmlns="http://www.w3.org/2000/svg">
<path d="M96.4219 0L4 43.5938L60.7734 180L97.7422 162.422L173 151.875L151.875 16.875L105.994 23.2031L96.4219 0ZM87.5098 22.8516L93.4512 37.2656L31.3965 66.4453L25.4551 52.3828L87.5098 22.8516ZM142.963 29.5312L160.787 142.031L132.73 146.25L153.195 136.406L110.615 34.1016L142.963 29.5312ZM96.752 58.0078C96.752 58.0078 105.367 85.1264 101.703 95.2734C99.871 100.347 90.4805 106.172 90.4805 106.172C90.4805 106.172 95.825 106.763 96.752 108.984C98.6059 113.427 91.8008 122.344 91.8008 122.344C91.8008 122.344 81.1117 121.513 79.2578 117.07C78.3308 114.849 81.5684 110.391 81.5684 110.391C81.5684 110.391 71.1482 114.1 66.3848 112.148C56.8578 108.246 43.9395 83.3203 43.9395 83.3203L76.2871 84.7266L96.752 58.0078ZM65.3945 59.0625L76.6172 60.1172L81.2383 71.0156L74.6367 80.8594L63.4141 79.4531L58.793 68.5547L65.3945 59.0625ZM104.674 127.617L106.654 131.836L100.713 134.648C99.8644 133.254 97.8924 132.898 96.4219 133.594C94.9513 134.29 94.3681 135.856 94.7715 137.461L88.8301 140.273L87.1797 136.055L104.674 127.617ZM106.984 132.891L108.635 137.109L91.1406 145.547L89.1602 141.328L95.1016 138.516C95.95 139.91 97.592 140.618 99.0625 139.922C100.533 139.226 101.446 137.308 101.043 135.703L106.984 132.891ZM97.082 134.297C98.202 133.767 99.555 134.51 100.053 135.703C100.55 136.896 99.8524 138.337 98.7324 138.867C97.6124 139.397 96.2595 138.654 95.7617 137.461C95.264 136.268 95.9621 134.827 97.082 134.297Z" fill="#333333"/>
<path d="M6.16943 207.259V217H2.88818V192.117H12.0654C14.7884 192.117 16.9189 192.812 18.457 194.202C20.0065 195.592 20.7812 197.432 20.7812 199.722C20.7812 202.138 20.0236 204 18.5083 205.311C17.0044 206.609 14.8454 207.259 12.0312 207.259H6.16943ZM6.16943 204.576H12.0654C13.82 204.576 15.1644 204.166 16.0986 203.345C17.0329 202.514 17.5 201.317 17.5 199.756C17.5 198.275 17.0329 197.09 16.0986 196.202C15.1644 195.313 13.8826 194.852 12.2534 194.817H6.16943V204.576ZM35.6836 217C35.5013 216.635 35.3532 215.986 35.2393 215.052C33.7695 216.578 32.015 217.342 29.9756 217.342C28.1527 217.342 26.6545 216.829 25.481 215.804C24.3188 214.767 23.7378 213.457 23.7378 211.873C23.7378 209.948 24.467 208.455 25.9253 207.396C27.395 206.325 29.4572 205.789 32.1118 205.789H35.188V204.336C35.188 203.231 34.8576 202.354 34.1968 201.705C33.536 201.044 32.5618 200.713 31.2744 200.713C30.1465 200.713 29.2008 200.998 28.4375 201.568C27.6742 202.138 27.2925 202.827 27.2925 203.636H24.1138C24.1138 202.713 24.4385 201.824 25.0879 200.97C25.7487 200.104 26.6374 199.42 27.7539 198.919C28.8818 198.418 30.118 198.167 31.4624 198.167C33.5929 198.167 35.262 198.702 36.4697 199.773C37.6774 200.833 38.304 202.297 38.3496 204.166V212.676C38.3496 214.374 38.5661 215.724 38.999 216.727V217H35.6836ZM30.437 214.59C31.4282 214.59 32.3682 214.334 33.2568 213.821C34.1455 213.309 34.7892 212.642 35.188 211.822V208.028H32.71C28.8363 208.028 26.8994 209.161 26.8994 211.429C26.8994 212.42 27.2298 213.195 27.8906 213.753C28.5514 214.311 29.4002 214.59 30.437 214.59ZM54.0723 212.095C54.0723 211.241 53.7476 210.58 53.0981 210.113C52.4601 209.634 51.3379 209.224 49.7314 208.882C48.1364 208.541 46.866 208.13 45.9204 207.652C44.9862 207.173 44.2912 206.604 43.8354 205.943C43.3911 205.282 43.1689 204.496 43.1689 203.584C43.1689 202.069 43.807 200.787 45.083 199.739C46.3704 198.691 48.0111 198.167 50.0049 198.167C52.1012 198.167 53.7988 198.708 55.0977 199.791C56.4079 200.873 57.063 202.257 57.063 203.943H53.8843C53.8843 203.077 53.514 202.331 52.7734 201.705C52.0443 201.078 51.1214 200.765 50.0049 200.765C48.8542 200.765 47.9541 201.015 47.3047 201.517C46.6553 202.018 46.3306 202.673 46.3306 203.482C46.3306 204.245 46.6325 204.821 47.2363 205.208C47.8402 205.595 48.9282 205.966 50.5005 206.319C52.0841 206.672 53.3659 207.094 54.3457 207.583C55.3255 208.073 56.049 208.666 56.5161 209.361C56.9946 210.044 57.2339 210.882 57.2339 211.873C57.2339 213.525 56.5731 214.852 55.2515 215.855C53.9299 216.846 52.2152 217.342 50.1074 217.342C48.6263 217.342 47.3161 217.08 46.1768 216.556C45.0374 216.032 44.1431 215.302 43.4937 214.368C42.8556 213.423 42.5366 212.403 42.5366 211.309H45.6982C45.7552 212.369 46.1768 213.212 46.9629 213.838C47.7604 214.454 48.8086 214.761 50.1074 214.761C51.3037 214.761 52.2607 214.522 52.9785 214.043C53.7077 213.554 54.0723 212.904 54.0723 212.095ZM72.1191 212.095C72.1191 211.241 71.7944 210.58 71.145 210.113C70.507 209.634 69.3848 209.224 67.7783 208.882C66.1833 208.541 64.9129 208.13 63.9673 207.652C63.033 207.173 62.3381 206.604 61.8823 205.943C61.438 205.282 61.2158 204.496 61.2158 203.584C61.2158 202.069 61.8538 200.787 63.1299 199.739C64.4173 198.691 66.0579 198.167 68.0518 198.167C70.1481 198.167 71.8457 198.708 73.1445 199.791C74.4548 200.873 75.1099 202.257 75.1099 203.943H71.9312C71.9312 203.077 71.5609 202.331 70.8203 201.705C70.0911 201.078 69.1683 200.765 68.0518 200.765C66.901 200.765 66.001 201.015 65.3516 201.517C64.7021 202.018 64.3774 202.673 64.3774 203.482C64.3774 204.245 64.6794 204.821 65.2832 205.208C65.887 205.595 66.9751 205.966 68.5474 206.319C70.131 206.672 71.4128 207.094 72.3926 207.583C73.3724 208.073 74.0959 208.666 74.563 209.361C75.0415 210.044 75.2808 210.882 75.2808 211.873C75.2808 213.525 74.62 214.852 73.2983 215.855C71.9767 216.846 70.262 217.342 68.1543 217.342C66.6732 217.342 65.363 217.08 64.2236 216.556C63.0843 216.032 62.1899 215.302 61.5405 214.368C60.9025 213.423 60.5835 212.403 60.5835 211.309H63.7451C63.8021 212.369 64.2236 213.212 65.0098 213.838C65.8073 214.454 66.8555 214.761 68.1543 214.761C69.3506 214.761 70.3076 214.522 71.0254 214.043C71.7546 213.554 72.1191 212.904 72.1191 212.095ZM95.0195 207.959C95.0195 210.774 94.3758 213.041 93.0884 214.761C91.8009 216.482 90.0578 217.342 87.8589 217.342C85.6144 217.342 83.8485 216.63 82.561 215.206V224.109H79.3994V198.509H82.2876L82.4414 200.56C83.7288 198.965 85.5176 198.167 87.8076 198.167C90.0293 198.167 91.7839 199.004 93.0713 200.679C94.3701 202.354 95.0195 204.684 95.0195 207.669V207.959ZM91.8579 207.601C91.8579 205.516 91.4136 203.869 90.5249 202.662C89.6362 201.454 88.4172 200.85 86.8677 200.85C84.9536 200.85 83.5181 201.699 82.561 203.396V212.232C83.5067 213.918 84.9536 214.761 86.9019 214.761C88.4172 214.761 89.6191 214.163 90.5078 212.967C91.4079 211.759 91.8579 209.97 91.8579 207.601ZM98.2153 207.583C98.2153 205.772 98.5685 204.143 99.2749 202.696C99.9927 201.249 100.984 200.132 102.249 199.346C103.525 198.56 104.977 198.167 106.606 198.167C109.124 198.167 111.158 199.039 112.708 200.782C114.268 202.525 115.049 204.843 115.049 207.737V207.959C115.049 209.76 114.701 211.377 114.006 212.813C113.323 214.237 112.337 215.348 111.05 216.146C109.774 216.943 108.304 217.342 106.641 217.342C104.134 217.342 102.1 216.47 100.54 214.727C98.9901 212.984 98.2153 210.677 98.2153 207.806V207.583ZM101.394 207.959C101.394 210.01 101.867 211.657 102.812 212.898C103.77 214.14 105.046 214.761 106.641 214.761C108.247 214.761 109.523 214.135 110.469 212.881C111.414 211.617 111.887 209.851 111.887 207.583C111.887 205.556 111.403 203.915 110.435 202.662C109.478 201.397 108.201 200.765 106.606 200.765C105.046 200.765 103.787 201.386 102.83 202.627C101.873 203.869 101.394 205.647 101.394 207.959ZM127.952 201.346C127.473 201.266 126.955 201.226 126.396 201.226C124.323 201.226 122.916 202.109 122.175 203.875V217H119.014V198.509H122.09L122.141 200.645C123.178 198.993 124.648 198.167 126.55 198.167C127.166 198.167 127.633 198.247 127.952 198.406V201.346ZM136.018 194.031V198.509H139.47V200.953H136.018V212.42C136.018 213.16 136.172 213.719 136.479 214.095C136.787 214.459 137.311 214.642 138.052 214.642C138.416 214.642 138.918 214.573 139.556 214.437V217C138.724 217.228 137.915 217.342 137.129 217.342C135.716 217.342 134.651 216.915 133.933 216.06C133.215 215.206 132.856 213.992 132.856 212.42V200.953H129.49V198.509H132.856V194.031H136.018ZM143.247 215.342C143.247 214.795 143.407 214.34 143.726 213.975C144.056 213.611 144.546 213.428 145.195 213.428C145.845 213.428 146.335 213.611 146.665 213.975C147.007 214.34 147.178 214.795 147.178 215.342C147.178 215.866 147.007 216.305 146.665 216.658C146.335 217.011 145.845 217.188 145.195 217.188C144.546 217.188 144.056 217.011 143.726 216.658C143.407 216.305 143.247 215.866 143.247 215.342ZM155.671 198.509V219.136C155.671 222.691 154.059 224.468 150.835 224.468C150.14 224.468 149.496 224.366 148.904 224.161V221.631C149.268 221.722 149.747 221.768 150.339 221.768C151.046 221.768 151.581 221.574 151.946 221.187C152.322 220.811 152.51 220.15 152.51 219.205V198.509H155.671ZM152.185 193.604C152.185 193.103 152.339 192.675 152.646 192.322C152.965 191.958 153.427 191.775 154.031 191.775C154.646 191.775 155.113 191.952 155.432 192.305C155.751 192.658 155.911 193.091 155.911 193.604C155.911 194.117 155.751 194.544 155.432 194.886C155.113 195.228 154.646 195.398 154.031 195.398C153.416 195.398 152.954 195.228 152.646 194.886C152.339 194.544 152.185 194.117 152.185 193.604ZM171.548 212.095C171.548 211.241 171.223 210.58 170.574 210.113C169.936 209.634 168.813 209.224 167.207 208.882C165.612 208.541 164.342 208.13 163.396 207.652C162.462 207.173 161.767 206.604 161.311 205.943C160.867 205.282 160.645 204.496 160.645 203.584C160.645 202.069 161.283 200.787 162.559 199.739C163.846 198.691 165.487 198.167 167.48 198.167C169.577 198.167 171.274 198.708 172.573 199.791C173.883 200.873 174.539 202.257 174.539 203.943H171.36C171.36 203.077 170.99 202.331 170.249 201.705C169.52 201.078 168.597 200.765 167.48 200.765C166.33 200.765 165.43 201.015 164.78 201.517C164.131 202.018 163.806 202.673 163.806 203.482C163.806 204.245 164.108 204.821 164.712 205.208C165.316 205.595 166.404 205.966 167.976 206.319C169.56 206.672 170.841 207.094 171.821 207.583C172.801 208.073 173.525 208.666 173.992 209.361C174.47 210.044 174.709 210.882 174.709 211.873C174.709 213.525 174.049 214.852 172.727 215.855C171.405 216.846 169.691 217.342 167.583 217.342C166.102 217.342 164.792 217.08 163.652 216.556C162.513 216.032 161.619 215.302 160.969 214.368C160.331 213.423 160.012 212.403 160.012 211.309H163.174C163.231 212.369 163.652 213.212 164.438 213.838C165.236 214.454 166.284 214.761 167.583 214.761C168.779 214.761 169.736 214.522 170.454 214.043C171.183 213.554 171.548 212.904 171.548 212.095Z" fill="black"/>
</svg>
