<svg width="170" height="174" viewBox="0 0 170 174" fill="none" xmlns="http://www.w3.org/2000/svg">
<path d="M137.627 0H83.9209L59.0186 87L83.9209 174H137.627C148.612 174 157.549 164.853 157.549 153.609V20.3906C157.549 9.14723 148.612 0 137.627 0Z" fill="#564D80"/>
<path d="M32.373 0C21.3881 0 12.4512 9.14723 12.4512 20.3906V153.609C12.4512 164.853 21.3881 174 32.373 174H83.9209V0H32.373Z" fill="#8062A7"/>
<path d="M115.549 72.4608C109.642 67.339 101.639 65.1892 93.5946 66.5611L83.9209 68.2114L73.96 78.6881L83.9209 88.8834L96.8694 86.6744C99.1595 86.2836 101.221 86.7614 102.672 88.0195C104.123 89.2776 104.922 91.2797 104.922 93.6565V153.609H124.844V93.6562C124.844 85.3079 121.456 77.5826 115.549 72.4608Z" fill="#EFF6F9"/>
<path d="M65.0781 71.4256V20.3906H45.1562V95.4961L83.9209 88.8831V68.2114L65.0781 71.4256Z" fill="white"/>
<path d="M45.1562 118.605L65.0781 133.898L45.1562 149.191V118.605Z" fill="white"/>
<path d="M122.57 41.0728C124.068 34.366 124.844 27.44 124.844 20.3906H104.922C104.922 27.579 103.877 34.521 101.944 41.0728H122.57Z" fill="#EFF6F9"/>
</svg>
