<svg width="441" height="126" viewBox="0 0 441 126" fill="none" xmlns="http://www.w3.org/2000/svg">
<path fill-rule="evenodd" clip-rule="evenodd" d="M410.607 52.1801C410.21 52.2598 409.812 53.1361 409.812 53.6137C409.733 56.7991 409.653 65.2415 409.653 70.9753C409.653 71.1347 409.891 71.4529 410.13 71.4529C411.322 71.5326 414.184 71.6124 416.648 71.6124C420.066 71.6124 422.053 71.1347 423.166 70.6571C426.027 69.2235 427.378 66.117 427.378 62.6924C427.378 54.9676 421.973 52.0206 413.945 52.0206C413.389 51.9416 411.8 51.9416 410.607 52.1801ZM431.114 87.7795C431.114 79.8952 425.311 75.5146 414.82 75.5146C414.343 75.5146 411.005 75.4349 410.21 75.5943C409.971 75.6741 409.653 75.8335 409.653 76.0727C409.653 81.7268 409.574 90.7265 409.812 94.2301C409.971 95.7434 411.084 97.8939 412.435 98.531C413.865 99.3275 417.125 99.4862 419.35 99.4862C425.63 99.4862 431.114 95.9826 431.114 87.7795ZM394.392 47.8002C395.187 47.8002 397.572 48.0386 403.692 48.0386C409.494 48.0386 414.104 47.8799 419.748 47.8799C426.663 47.8799 436.201 50.3485 436.201 60.7014C436.201 65.7988 432.624 69.8606 427.934 71.8515C427.696 71.9313 427.696 72.09 427.934 72.1697C434.611 73.8425 440.494 77.984 440.494 85.7885C440.494 93.4343 435.724 98.2918 428.809 101.319C424.596 103.15 419.35 103.787 414.025 103.787C409.971 103.787 399.082 103.31 393.041 103.469C392.405 103.23 393.597 100.363 394.154 99.8849C395.584 99.8052 396.697 99.7254 398.207 99.2478C400.354 98.6904 400.592 98.0534 400.91 94.7882C401.069 92.0006 401.069 82.1247 401.069 75.1167C401.069 65.4799 401.149 58.9496 401.069 55.7642C400.989 53.2955 400.115 52.499 398.367 52.0206C397.015 51.7822 394.789 51.4633 392.961 51.2248C392.564 50.8262 393.915 48.1184 394.392 47.8002ZM348.529 97.3365C350.437 98.8492 354.173 99.4862 357.511 99.4862C361.804 99.4862 366.095 98.6904 370.229 94.9469C374.442 91.1244 377.382 85.2311 377.382 75.8335C377.382 66.8338 373.964 59.5069 366.97 55.2068C362.996 52.7374 357.908 51.7024 352.027 51.7024C350.278 51.7024 348.609 51.7822 347.576 52.2598C347.337 52.4193 346.781 53.1361 346.781 53.534C346.622 55.1271 346.622 67.3912 346.622 74.5594C346.622 81.966 346.622 92.3188 346.781 93.5133C346.781 94.7085 347.337 96.54 348.529 97.3365ZM330.486 47.8002C331.996 47.8002 337.799 48.0386 340.581 48.0386C345.589 48.0386 349.165 47.8002 358.624 47.8002C366.572 47.8002 373.249 49.9506 378.018 54.0116C383.82 59.0293 386.841 65.9583 386.841 74.3999C386.841 86.4256 381.356 93.3545 375.872 97.3365C370.388 101.398 363.234 103.787 353.06 103.787C347.655 103.787 338.356 103.628 330.645 103.548H330.566C330.168 102.832 331.201 100.044 331.837 99.9646C333.904 99.7254 334.46 99.6457 335.494 99.2478C337.163 98.6107 337.481 97.7344 337.72 94.7882C337.958 89.2928 337.878 82.6828 337.878 75.1964C337.878 69.8606 337.958 59.4272 337.799 56.0823C337.561 53.2955 336.368 52.5787 333.984 52.1003C332.791 51.8619 331.201 51.543 328.976 51.3045C328.658 50.7464 330.089 48.2778 330.486 47.8002Z" fill="#8E714E"/>
<path fill-rule="evenodd" clip-rule="evenodd" d="M234.31 100.442C232.323 100.203 230.892 99.8849 229.143 99.0883C228.905 98.9289 228.507 98.1331 228.507 97.8142C228.348 95.0266 228.348 87.0627 228.348 81.7268C228.348 77.4259 227.633 73.6831 225.805 71.055C223.658 68.0283 220.559 66.2765 216.585 66.2765C213.087 66.2765 208.397 68.6661 204.503 72.011C204.423 72.09 203.787 72.6481 203.867 71.7718C203.867 70.8955 204.026 69.1437 204.106 67.9493C204.185 66.8338 203.549 66.2765 203.549 66.2765C201.005 67.5506 193.852 69.2235 191.229 69.4619C189.321 69.8605 188.845 71.6921 190.832 72.3292H190.911C193.057 72.9663 194.488 73.6831 195.6 74.3999C196.395 75.037 196.316 75.9133 196.316 76.6301C196.395 82.603 196.395 91.7615 196.157 96.7792C196.078 98.7702 195.521 99.4862 194.091 99.8052L194.249 99.7254C193.136 99.9646 192.262 100.203 190.911 100.363C190.434 100.84 190.434 103.389 190.911 103.947C191.785 103.947 196.395 103.707 200.211 103.707C205.457 103.707 208.159 103.947 209.511 103.947C210.067 103.31 210.226 100.92 209.908 100.363C208.397 100.283 207.285 100.124 206.252 99.8052C204.821 99.4862 204.423 98.7702 204.344 97.0973C204.185 92.8762 204.185 83.957 204.185 77.9042C204.185 76.2314 204.662 75.4349 205.139 74.9573C206.967 73.3649 209.908 72.2494 212.531 72.2494C215.074 72.2494 216.744 73.046 218.015 74.0817C219.764 75.5146 220.32 77.5853 220.559 79.0987C220.956 82.5233 220.798 89.2928 220.798 95.1861C220.798 98.3715 220.559 99.1681 219.367 99.566C218.81 99.8052 217.38 100.124 215.71 100.283C215.154 100.84 215.313 103.31 215.71 103.867C218.015 103.867 220.718 103.628 224.692 103.628C229.62 103.628 232.8 103.867 234.071 103.867C234.469 103.389 234.628 101.079 234.309 100.442H234.31ZM256.327 70.02C252.114 70.02 249.492 73.2852 249.492 78.3819C249.492 83.5583 251.796 89.5313 258.314 89.5313C259.427 89.5313 261.494 89.0537 262.447 87.9389C263.957 86.5053 264.991 83.638 264.991 80.6121C264.991 74.002 261.732 70.02 256.327 70.02ZM255.77 105.221C254.181 105.221 253.068 105.698 252.353 106.097C249.014 108.247 247.504 110.317 247.504 112.787C247.504 115.096 248.378 116.928 250.287 118.521C252.591 120.512 255.77 121.468 259.824 121.468C267.932 121.468 271.509 117.087 271.509 112.787C271.509 109.76 269.998 107.769 266.899 106.654C264.673 105.698 260.619 105.221 255.77 105.221ZM256.327 125.927C251.479 125.927 247.981 124.892 244.961 122.582C242.02 120.352 240.748 117.007 240.748 114.698C240.748 114.061 240.907 112.308 242.338 110.716C243.212 109.76 245.119 107.929 249.651 104.823C249.809 104.743 249.889 104.663 249.889 104.504C249.889 104.344 249.729 104.185 249.571 104.106C245.835 102.672 244.722 100.363 244.404 99.0883V98.9289C244.325 98.4513 244.166 97.9736 244.881 97.4952C245.438 97.0973 246.233 96.6197 247.107 96.0624C248.458 95.2658 249.889 94.3895 250.763 93.6727C250.922 93.5133 250.922 93.3546 250.922 93.1951C250.922 93.0356 250.763 92.8762 250.604 92.7972C245.041 90.9649 242.258 86.8235 242.258 80.6121C242.258 76.5503 244.086 72.8865 247.345 70.5774C249.571 68.8248 255.135 66.6751 258.791 66.6751H259.03C262.765 66.7541 264.832 67.5506 267.773 68.5864C269.363 69.1437 270.873 69.3822 272.94 69.3822C276.039 69.3822 277.391 68.4269 278.503 67.3122C278.583 67.4709 278.742 67.8696 278.821 68.9045C278.901 69.9403 278.583 71.4529 277.788 72.5684C277.152 73.4439 275.722 74.0817 274.291 74.0817H273.893C272.462 73.9223 271.826 73.7628 271.826 73.7628L271.509 73.9223C271.429 74.0817 271.509 74.2404 271.588 74.4796L271.668 74.6391C271.826 75.3559 272.145 77.5056 272.145 78.0637C272.145 84.594 269.522 87.4606 266.74 89.611C264.037 91.602 260.937 92.8762 257.44 93.1951C257.36 93.1951 257.043 93.1951 256.327 93.2748C255.93 93.2748 255.373 93.3546 255.294 93.3546H255.214C254.578 93.5133 252.989 94.3098 252.989 95.6637C252.989 96.8582 253.704 98.2918 257.122 98.531C257.837 98.6107 258.552 98.6107 259.347 98.6904C263.878 99.0086 269.522 99.4073 272.145 100.283C275.801 101.637 278.106 104.902 278.106 108.805C278.106 114.698 273.893 120.193 266.899 123.617C263.481 125.131 260.063 125.927 256.327 125.927ZM301.634 70.4179C299.964 70.4179 298.454 70.8158 297.341 71.6124C294.242 73.5236 292.652 77.3469 292.652 82.9212C292.652 93.3546 297.897 100.681 305.369 100.681C307.595 100.681 309.343 100.044 310.854 98.7702C313.158 96.8582 314.351 93.0356 314.351 87.6997C314.351 77.3469 309.184 70.4179 301.634 70.4179ZM303.064 104.504C289.552 104.504 284.703 94.549 284.703 85.2311C284.703 78.7008 287.326 73.6831 292.572 70.099C296.308 67.7898 300.759 66.5157 304.733 66.5157C315.066 66.5157 322.3 73.9223 322.3 84.594C322.3 91.8412 319.438 97.575 313.953 101.079C311.33 102.831 306.8 104.504 303.064 104.504H303.064ZM161.422 70.4179C159.753 70.4179 158.243 70.8158 157.13 71.6124C154.03 73.5236 152.44 77.3469 152.44 82.9212C152.44 93.3546 157.686 100.681 165.158 100.681C167.384 100.681 169.132 100.044 170.642 98.7702C172.947 96.8582 174.14 93.0356 174.14 87.6997C174.14 77.3469 169.053 70.4179 161.422 70.4179ZM162.853 104.504C149.341 104.504 144.492 94.549 144.492 85.2311C144.492 78.7008 147.115 73.6831 152.361 70.099C156.097 67.7898 160.548 66.5157 164.522 66.5157C174.855 66.5157 182.088 73.9223 182.088 84.594C182.088 91.8412 179.227 97.575 173.742 101.079C171.199 102.831 166.668 104.504 162.853 104.504ZM72.002 103.707C71.8429 103.469 71.6837 102.752 71.7633 101.876C71.7633 101.239 71.9224 100.84 72.002 100.681C73.6708 100.442 74.5454 100.203 75.4988 99.9646C77.0888 99.566 77.7246 98.6904 77.8042 96.6994C78.0429 91.9209 78.0429 82.8415 77.9633 76.5503V76.3909C77.9633 75.6741 77.9633 74.7978 77.0888 74.1607C75.8171 73.3649 74.3067 72.6481 72.3196 72.09C71.6041 71.8515 71.1274 71.4529 71.207 70.9753C71.207 70.4976 71.6837 69.9403 72.7174 69.7808C75.3404 69.5416 82.1755 67.8696 84.878 66.6751C85.0372 66.8338 85.2759 67.3122 85.2759 67.9493L85.1963 68.8248C85.1167 69.7011 85.0372 70.7368 85.0372 71.7718C85.0372 72.09 85.3555 72.3292 85.673 72.3292C85.8322 72.3292 85.9913 72.2494 86.1505 72.1697C91.2372 68.1877 95.8472 66.7541 98.2315 66.7541C102.127 66.7541 105.147 68.5864 107.452 72.4089C107.611 72.6481 107.77 72.7271 108.009 72.7271C108.168 72.7271 108.406 72.6481 108.485 72.4886C113.175 68.9045 117.865 66.7541 120.964 66.7541C128.356 66.7541 132.728 72.2494 132.728 81.5673C132.728 84.1954 132.728 87.62 132.649 90.7265C132.649 93.5133 132.569 96.0624 132.569 97.8939C132.569 98.2918 133.126 99.566 134 99.8052C135.113 100.363 136.623 100.602 138.61 100.92H138.69C138.849 101.477 138.531 103.548 138.213 103.947C137.736 103.947 137.02 103.947 136.226 103.867C134.715 103.787 132.569 103.707 130.185 103.707C125.257 103.707 122.713 103.787 120.249 103.947C120.09 103.31 120.011 101.398 120.249 100.92C121.68 100.681 122.395 100.442 123.27 100.203C124.86 99.7254 125.257 99.0086 125.336 96.9379C125.336 95.4253 125.654 82.5233 125.177 79.4169C124.7 76.2314 122.315 72.4886 117.07 72.4886C115.082 72.4886 111.983 73.2852 108.962 75.5943C108.804 75.7538 108.644 76.1517 108.644 76.3909V76.4706C108.962 78.1427 108.962 80.0547 108.962 83.0009V88.1774C108.962 91.7615 108.882 95.1064 108.962 97.6547C108.962 99.4073 109.996 99.8052 110.87 100.124C111.347 100.203 111.665 100.283 112.062 100.363C112.778 100.522 113.493 100.681 114.606 100.92C114.765 101.239 114.765 102.274 114.526 103.15C114.447 103.628 114.287 103.867 114.209 103.947C111.506 103.867 108.724 103.787 104.67 103.787C103.478 103.787 101.411 103.867 99.6623 103.867C98.2315 103.867 96.8802 103.947 96.086 103.947C96.0064 103.787 95.8472 103.23 95.8472 102.354C95.8472 101.637 96.0064 101.079 96.1655 100.92C96.5627 100.84 96.8802 100.761 97.2781 100.761C98.2315 100.602 99.0265 100.442 99.8214 100.283C101.173 99.8849 101.649 99.1681 101.729 97.4163C101.968 93.4343 102.206 82.0457 101.649 79.1784C100.696 74.5594 98.0731 72.2494 93.8601 72.2494C91.3963 72.2494 88.296 73.4439 85.7526 75.3559C85.3555 75.6741 85.0372 76.4706 85.0372 77.1874V81.8862C85.0372 87.62 85.0372 94.7882 85.1167 97.8939C85.1963 98.8492 85.5139 99.9646 87.3426 100.363C87.7397 100.442 88.3755 100.602 89.1705 100.681L90.6014 100.92C90.7605 101.398 90.6809 103.31 90.3626 103.947C89.5676 103.947 88.6142 103.867 87.501 103.867C85.8322 103.787 83.6859 103.707 81.3017 103.707C78.5196 103.707 76.5325 103.787 74.9425 103.867C73.83 103.707 72.9554 103.707 72.002 103.707Z" fill="#442D22"/>
<path fill-rule="evenodd" clip-rule="evenodd" d="M30.1925 122.822L26.9337 121.706C26.9337 121.706 27.3316 105.061 21.3703 103.867C17.3961 99.2478 22.0061 -92.0483 36.313 103.23C36.313 103.23 31.3854 105.698 30.5108 109.92C29.5567 114.061 30.1925 122.822 30.1925 122.822Z" fill="white"/>
<path fill-rule="evenodd" clip-rule="evenodd" d="M30.1925 122.822L26.9337 121.706C26.9337 121.706 27.3316 105.061 21.3703 103.867C17.3961 99.2478 22.0061 -92.0483 36.313 103.23C36.313 103.23 31.3854 105.698 30.5108 109.92C29.5567 114.061 30.1925 122.822 30.1925 122.822Z" fill="#A6A385"/>
<path fill-rule="evenodd" clip-rule="evenodd" d="M31.9416 106.734C31.9416 106.734 60.4765 87.9389 53.7998 48.8352C47.3618 20.4039 32.1796 11.0861 30.5108 7.50198C28.6829 4.95363 26.9337 0.494019 26.9337 0.494019L28.1266 79.5763C28.1266 79.6561 25.662 103.787 31.9416 106.734Z" fill="white"/>
<path fill-rule="evenodd" clip-rule="evenodd" d="M31.9416 106.734C31.9416 106.734 60.4765 87.9389 53.7998 48.8352C47.3618 20.4039 32.1796 11.0861 30.5108 7.50198C28.6829 4.95363 26.9337 0.494019 26.9337 0.494019L28.1266 79.5763C28.1266 79.6561 25.662 103.787 31.9416 106.734Z" fill="#499D4A"/>
<path fill-rule="evenodd" clip-rule="evenodd" d="M25.2649 107.769C25.2649 107.769 -1.52153 89.4515 0.0684485 57.1978C1.57811 24.9433 20.4957 9.09507 24.1517 6.22781C26.5366 3.67946 26.6162 2.72345 26.7753 0.175102C28.4442 3.75918 28.1266 53.7732 28.3646 59.6664C29.08 82.3639 27.0929 103.469 25.2649 107.769Z" fill="white"/>
<path fill-rule="evenodd" clip-rule="evenodd" d="M25.2649 107.769C25.2649 107.769 -1.52153 89.4515 0.0684485 57.1978C1.57811 24.9433 20.4957 9.09507 24.1517 6.22781C26.5366 3.67946 26.6162 2.72345 26.7753 0.175102C28.4442 3.75918 28.1266 53.7732 28.3646 59.6664C29.08 82.3639 27.0929 103.469 25.2649 107.769Z" fill="#58AA50"/>
</svg>
