<svg width="302" height="263" viewBox="0 0 302 263" fill="none" xmlns="http://www.w3.org/2000/svg">
<path d="M143.447 142.061V107.871L109.447 90.7766L75.4481 107.871V142.061L109.447 159.155L143.447 142.061Z" fill="#3B8739"/>
<path d="M277.347 136.872L299.504 148.015L277.347 159.158L243.35 142.063V107.873L277.347 90.7776L297.951 101.142C300.015 108.726 301.316 116.562 301.791 124.586L289.193 130.92V119.01L277.347 113.058L265.501 119.01V130.92L277.347 136.872Z" fill="#333333"/>
<path d="M283.946 128.284V121.648L277.346 118.329L270.746 121.648V128.284L277.346 131.603L283.946 128.284Z" fill="#66A060"/>
<path d="M59.389 107.873V152.959L36.7142 141.693V118.581L25.3928 112.886L14.0707 118.581V141.692L1.19561 148.091C0.406992 142.658 0 137.12 0 131.5C0 121.205 1.35605 111.185 3.926 101.571L25.3928 90.7776L59.389 107.873Z" fill="#333333"/>
<path d="M143.444 142.056L109.445 90.7749L75.447 107.869L109.446 159.151L143.444 142.056Z" fill="#6DA75D"/>
<path d="M75.4481 142.061L87.1223 125.481L75.4481 107.871V142.061Z" fill="#55A344"/>
<path d="M132.113 124.965L143.447 107.871L109.447 90.7766L132.113 124.965Z" fill="#639D57"/>
<path d="M204.411 51.1509V96.5102L193.015 90.7776L159.012 107.873V142.063L193.015 159.158L227.012 142.063V61.6868L204.411 51.1509ZM204.349 130.663L193.015 136.363L181.68 130.663V119.268L193.015 113.568L204.349 119.268V130.663Z" fill="#333333"/>
<path d="M166.424 184.263C166.424 184.263 165.756 179.265 159.618 179.265C153.479 179.265 149.275 179.962 149.275 182.926C149.275 185.89 161.22 185.89 165.757 187.052C170.295 188.214 174.298 191.236 172.296 196.582C170.294 201.929 164.155 202.509 154.68 202.509C145.205 202.509 143.069 195.652 143.069 192.979H148.407C148.407 192.979 147.739 197.163 154.012 197.86C160.284 198.557 166.282 198.95 167.09 194.723C168.158 189.144 146.805 191.933 144.936 186.471C143.358 181.856 144.269 175.779 154.945 174.849C165.622 173.919 171.494 178.024 171.494 184.147L166.424 184.263Z" fill="#66A060"/>
<path d="M114.856 206.05L126.658 211.983C132.587 214.964 139.999 211.238 139.999 205.275V194.877V175.742H135.189V204.11C135.189 207.366 131.142 209.402 127.903 207.773L119.666 203.632V173.356L149.773 158.22L179.881 173.356V203.632L149.773 218.768L141.1 214.408L135.436 216.397L149.773 223.605L184.69 206.048V170.938L149.773 153.382L114.856 170.939V206.05H114.856Z" fill="#66A060"/>
</svg>
