<svg width="381" height="154" viewBox="0 0 381 154" fill="none" xmlns="http://www.w3.org/2000/svg">
<path d="M0 0H381V132H190.5V154H105.833V132H0V0ZM21.1667 110H63.5V44H84.6667V110H105.833V22H21.1667V110ZM127 22V132H169.333V110H211.667V22H127ZM169.333 44H190.5V88H169.333V44ZM232.833 22V110H275.167V44H296.333V110H317.5V44H338.667V110H359.833V22H232.833Z" fill="#CB3837"/>
<path d="M21.1667 110H63.5V44H84.6667V110H105.833V22H21.1667V110Z" fill="white"/>
<path d="M127 22V132H169.333V110H211.667V22H127ZM190.5 88H169.333V44H190.5V88Z" fill="white"/>
<path d="M232.833 22V110H275.167V44H296.333V110H317.5V44H338.667V110H359.833V22H232.833Z" fill="white"/>
</svg>
