<svg width="256" height="198" viewBox="0 0 256 198" fill="none" xmlns="http://www.w3.org/2000/svg">
<path d="M223.383 110.205C219.501 111.341 219.658 111.361 217.605 108.468C214.982 104.783 213.587 100.907 213.467 96.6928C213.367 93.0762 214.647 89.7145 216.257 86.4169C217.542 83.7946 215.87 82.8692 212.934 82.6306C210.797 82.4608 208.592 82.477 206.45 82.6468C200.881 83.0873 200.332 83.4589 198.854 87.6413C197.976 90.1225 197.276 92.6238 195.818 94.9793C192.224 100.778 188.138 106.362 183.948 111.906C183.196 112.904 182.574 113.979 181.514 114.832C178.478 111.316 177.334 107.433 177.078 103.36C176.822 99.3391 178.416 95.6015 180.166 91.9041C180.756 90.6596 180.265 89.8877 178.875 89.3502C178.259 89.112 177.569 88.8896 176.895 88.849C173.322 88.6309 169.759 88.663 166.274 89.4186C164.706 89.7539 163.682 90.433 163.332 91.7946C162.653 94.4576 161.593 97.0436 160.161 99.5329C156.19 106.427 152.246 113.332 148.28 120.23C144.832 126.223 141.436 132.231 137.351 137.985C137.063 138.393 136.823 139.101 136.102 138.959C135.371 138.818 135.627 138.123 135.595 137.646C135.36 134.252 136.557 131.015 137.575 127.774C139.19 122.646 140.955 117.543 142.669 112.431C143.16 110.964 142.335 109.978 140.762 109.275C138.5 108.269 136.248 108.221 133.798 109.631C134.133 107.545 134.279 105.715 134.164 103.885C133.903 99.8036 131.457 97.1488 127.2 96.5343C124.091 96.0857 121.15 96.7849 118.37 97.8031C111.892 100.175 106.683 103.751 102.305 108.091C101.793 108.596 101.276 109.061 100.534 109.372C92.316 112.835 84.103 116.298 75.906 119.793C75.0075 120.181 74.4275 120.072 73.7795 119.534C69.652 116.112 64.8615 113.287 60.1175 110.423C53.4875 106.414 46.628 102.616 40.907 97.783C37.5635 94.9545 34.7735 91.855 33.3785 88.1135C31.1005 81.9956 32.804 76.2981 36.597 70.8836C41.085 64.4788 47.741 59.533 55.081 55.1283C66.737 48.1376 79.521 42.5855 92.995 38.0156C108.083 32.904 123.736 29.6107 140.407 30.1076C147.011 30.3056 153.421 31.1904 159.304 33.6917C163.468 35.4617 166.226 38.0195 167.005 41.7733C167.919 46.1696 166.555 50.2309 164.032 54.0818C158.395 62.6848 149.435 68.7783 138.845 73.5504C130.026 77.5224 120.512 80.0442 110.444 81.3652C104.88 82.0965 99.2955 82.537 93.7 81.8784C87.279 81.1228 81.344 79.4622 76.9505 75.4616C76.4435 75.001 75.801 74.6816 74.939 75.0049C74.056 75.3363 74.124 75.9423 74.2075 76.5243C74.27 76.9241 74.4115 77.3283 74.594 77.7084C75.7695 80.1614 77.969 82.0118 80.5445 83.6283C87.2425 87.8428 95.1785 89.0795 103.511 89.2048C111.667 89.3301 119.697 88.53 127.643 87.0593C145.568 83.7459 160.584 76.945 171.545 65.2913C178.096 58.3249 182.245 50.6474 181.879 41.8627C181.644 36.2904 179.219 31.3687 173.969 27.3685C167.725 22.6203 159.978 20.2323 151.665 18.798C142.407 17.2059 133.056 16.9796 123.61 17.8525C115.392 18.612 107.362 19.9133 99.546 21.9942C87.587 25.1823 76.036 29.0979 64.981 33.858C53.6545 38.731 42.9805 44.3118 33.6185 51.3021C25.3325 57.4884 18.2115 64.3136 14.199 72.787C12.4855 76.4156 11.2525 80.1455 12.402 84.0692C13.8755 89.1201 17.0935 93.4923 21.3255 97.4361C27.7255 103.409 35.578 108.112 43.676 112.605C50.1805 116.217 56.988 119.507 63.2365 123.39C65.0075 124.489 64.997 124.489 62.9125 125.334C60.478 126.315 58.017 127.261 55.6245 128.307C45.9755 132.527 36.65 137.101 29.0375 143.457C25.2915 146.589 22.747 150.104 21.5615 154.008C27.7575 161.168 35.1295 167.666 43.4625 173.335C57.6785 172.478 68.561 166.756 76.6015 157.293C80.4835 152.723 82.3015 147.551 82.986 142.095C83.587 137.287 82.9545 132.631 81.126 128.041C80.8075 127.233 79.6215 126.429 80.0865 125.718C80.52 125.063 81.8265 124.731 82.7875 124.303C86.664 122.562 90.551 120.845 94.5425 119.071C94.715 119.734 94.3805 120.121 94.2345 120.541C91.946 127.035 90.3525 133.581 92.0925 140.329C93.174 144.532 94.9765 148.488 98.4035 151.967C101.93 155.547 109.803 155.139 113 151.87C116.036 148.766 118.047 145.267 120.142 141.784C121.292 139.877 122.347 137.937 123.444 136.009C123.24 138.329 123.251 140.592 123.361 142.847C123.47 145.069 123.93 147.263 125.424 149.227C127.221 151.587 130.602 152.274 133.742 151.013C137.054 149.683 139.311 147.493 141.066 145.117C148.595 134.898 155.58 124.461 161.363 113.563C162.596 111.247 163.861 108.936 165.256 106.362C165.47 107.207 165.611 107.724 165.742 108.241C167.027 113.433 169.315 118.347 172.628 122.966C173.338 123.956 173.26 124.639 172.361 125.588C169.31 128.801 165.966 131.823 162.67 134.878C159.901 137.448 156.938 139.905 154.598 142.733C152.498 145.279 153.704 147.885 157.2 148.463C158.276 148.641 159.41 148.694 160.512 148.681C166.62 148.625 172.257 147.215 177.508 144.903C184.576 141.788 188.767 137.221 188.573 130.72C188.484 127.762 187.45 124.921 185.909 122.21C185.569 121.608 185.553 121.171 186.06 120.606C190.956 115.183 195.281 109.497 199.257 103.646C199.963 102.616 200.459 101.472 201.598 100.466C201.749 100.874 201.869 101.129 201.937 101.392C203.202 106.241 204.905 110.981 208.102 115.308C208.98 116.492 208.541 117.094 207.329 117.886C203.155 120.63 199.634 123.83 196.87 127.495C194.717 130.348 193.244 133.395 193.26 136.737C193.275 140.454 196.953 142.644 201.64 141.771C206.525 140.866 211.054 139.327 215.119 137.028C223.974 132.013 226.571 126.723 223.797 119.341C222.71 116.436 222.731 116.484 226.498 115.603C234.737 113.68 243.096 113.599 251.497 114.658C252.448 114.779 253.388 114.917 254.318 115.074C254.809 112.767 255.195 110.431 255.467 108.067C244.72 106.035 233.989 107.09 223.383 110.205ZM49.293 162.19C46.9055 162.845 44.424 163.124 41.8845 162.97C38.7235 162.776 36.7175 161.051 36.5135 158.456C36.2835 155.466 37.428 152.767 39.1205 150.14C42.1975 145.372 47.3645 142.136 52.6365 138.96C57.7615 135.869 63.2685 133.23 68.8375 130.664C70.525 129.888 70.551 129.896 70.9375 131.452C71.439 133.448 71.8885 135.448 71.721 137.263C72.1605 148.144 61.9415 158.727 49.293 162.19ZM125.978 107.32C125.09 111.906 123.151 116.274 121.088 120.59C118.277 126.481 115.539 132.401 112.002 138.066C111.192 139.371 110.341 140.669 109.03 141.731C107.792 142.737 106.694 142.62 105.838 141.392C104.166 138.991 104.375 136.321 104.103 134.381C104.182 124.651 108.403 116.698 115.357 109.55C117.3 107.558 119.782 105.938 123.068 105.287C125.299 104.847 126.328 105.542 125.978 107.32ZM174.67 136.127C172.288 139.311 168.855 141.626 164.644 143.275C164.195 143.449 163.615 143.756 163.208 143.348C162.821 142.964 163.443 142.709 163.725 142.467C167.91 138.931 172.042 135.367 175.767 131.532C175.825 131.472 175.966 131.463 176.284 131.359C176.248 133.133 175.746 134.693 174.67 136.127ZM203.567 135.99C202.945 136.216 202.224 136.64 201.618 136.277C200.95 135.877 201.216 135.169 201.42 134.628C202.371 132.159 203.651 129.795 205.416 127.593C206.9 125.738 208.739 124.118 210.761 122.606C211.576 122 211.941 122.073 212.218 122.946C212.506 123.839 212.532 124.732 212.553 125.641C212.501 130.615 209.235 133.925 203.567 135.99Z" fill="#CD6699"/>
</svg>
